<?xml version="1.0" encoding="UTF-8"?>
<svg xmlns="http://www.w3.org/2000/svg" viewBox="0 0 450 500" width="450" height="500">
  <title>Archetype Selection</title>
  <defs>
    <style>
      @import url('https://fonts.googleapis.com/css2?family=Inter:wght@400;500;600&amp;display=swap');
      .title { font-family: 'Inter', sans-serif; font-size: 18px; font-weight: 600; fill: #e2e8f0; }
      .label { font-family: 'Inter', sans-serif; font-size: 12px; font-weight: 500; fill: #e2e8f0; }
      .value { font-family: 'Inter', sans-serif; font-size: 14px; font-weight: 600; fill: #e2e8f0; }
      .dim { fill: #94a3b8; }
      .small { font-size: 10px; }
    </style>
    <linearGradient id="primaryGradient" x1="0%" y1="0%" x2="100%" y2="100%">
      <stop offset="0%" style="stop-color:#6366f1;stop-opacity:1" />
      <stop offset="100%" style="stop-color:#8b5cf6;stop-opacity:1" />
    </linearGradient>
    <filter id="glow">
      <feGaussianBlur stdDeviation="3" result="coloredBlur"/>
      <feMerge>
        <feMergeNode in="coloredBlur"/>
        <feMergeNode in="SourceGraphic"/>
      </feMerge>
    </filter>
  </defs>
  <rect width="100%" height="100%" fill="#1e1e2e"/>
  <text x="225" y="35" text-anchor="middle" class="title">Archetype Scores — 2026-01-10</text>
  <path d="M 225.0 180.0 L 225.0 154.9 A 75.1 75.1 0 0 1 290.0 192.4 L 268.3 205.0 A 50.0 50.0 0 0 0 225.0 180.0 Z" fill="#34d399" fill-opacity="0.4" stroke="#3d3d4d" stroke-width="1"/>
  <text x="310.0" y="82.8" text-anchor="middle" class="label small">Tranquil</text>
  <text x="261.3" y="167.2" text-anchor="middle" dominant-baseline="middle" class="value small">0.28</text>
  <path d="M 268.3 205.0 L 314.0 178.6 A 102.7 102.7 0 0 1 314.0 281.4 L 268.3 255.0 A 50.0 50.0 0 0 0 268.3 205.0 Z" fill="#f472b6" fill-opacity="0.4" stroke="#3d3d4d" stroke-width="1"/>
  <text x="395.0" y="230.0" text-anchor="start" class="label small">Serene</text>
  <text x="311.4" y="230.0" text-anchor="middle" dominant-baseline="middle" class="value small">0.59</text>
  <path d="M 268.3 255.0 L 329.4 290.3 A 120.6 120.6 0 0 1 225.0 350.6 L 225.0 280.0 A 50.0 50.0 0 0 0 268.3 255.0 Z" fill="#2dd4bf" fill-opacity="0.7" stroke="#e2e8f0" stroke-width="2"/>
  <text x="310.0" y="377.2" text-anchor="middle" class="label small">Cautious</text>
  <text x="272.6" y="312.5" text-anchor="middle" dominant-baseline="middle" class="value small">0.78</text>
  <path d="M 225.0 280.0 L 225.0 361.6 A 131.6 131.6 0 0 1 111.0 295.8 L 181.7 255.0 A 50.0 50.0 0 0 0 225.0 280.0 Z" fill="#fbbf24" fill-opacity="0.9" stroke="#e2e8f0" stroke-width="3"/>
  <text x="140.0" y="377.2" text-anchor="middle" class="label small">Gentle</text>
  <text x="174.6" y="317.3" text-anchor="middle" dominant-baseline="middle" class="value small">0.91</text>
  <path d="M 181.7 255.0 L 131.7 283.9 A 107.8 107.8 0 0 1 131.7 176.1 L 181.7 205.0 A 50.0 50.0 0 0 0 181.7 255.0 Z" fill="#a78bfa" fill-opacity="0.4" stroke="#3d3d4d" stroke-width="1"/>
  <text x="55.0" y="230.0" text-anchor="end" class="label small">Melancholic</text>
  <text x="136.1" y="230.0" text-anchor="middle" dominant-baseline="middle" class="value small">0.64</text>
  <path d="M 181.7 205.0 L 125.9 172.8 A 114.4 114.4 0 0 1 225.0 115.6 L 225.0 180.0 A 50.0 50.0 0 0 0 181.7 205.0 Z" fill="#60a5fa" fill-opacity="0.4" stroke="#3d3d4d" stroke-width="1"/>
  <text x="140.0" y="82.8" text-anchor="middle" class="label small">Reflective</text>
  <text x="178.9" y="150.1" text-anchor="middle" dominant-baseline="middle" class="value small">0.72</text>
  <circle cx="225" cy="230" r="45" fill="#2d2d3d"/>
  <text x="225" y="225" text-anchor="middle" class="label">Primary</text>
  <text x="225" y="245" text-anchor="middle" class="value">Gentle</text>
  <rect x="50" y="430" width="15" height="15" fill="#fbbf24" fill-opacity="0.9" rx="3"/>
  <text x="75" y="442" class="label small">Primary</text>
  <rect x="150" y="430" width="15" height="15" fill="#2dd4bf" fill-opacity="0.7" rx="3"/>
  <text x="175" y="442" class="label small">Secondary</text>
</svg>