<svg version="1.1" xmlns="http://www.w3.org/2000/svg" xmlns:xlink="http://www.w3.org/1999/xlink" stroke-linecap="round" stroke-linejoin="round" stroke-width="0" fill-rule="evenodd" clip-rule="evenodd" id="SoGP2l_TaSTAmu6lmfFo_bottom" viewBox="5580 39999.8 64952.5 57500.2" width="64.9525mm" height="57.5002mm" class="w-100 h-100"><defs><style>.SoGP2l_TaSTAmu6lmfFo_fr4 {color: #666666;}
.SoGP2l_TaSTAmu6lmfFo_cu {color: #cccccc;}
.SoGP2l_TaSTAmu6lmfFo_cf {color: #cc9933;}
.SoGP2l_TaSTAmu6lmfFo_sm {color: #000000; opacity: 0.75;}
.SoGP2l_TaSTAmu6lmfFo_ss {color: #ffffff;}
.SoGP2l_TaSTAmu6lmfFo_sp {color: #999999;}
.SoGP2l_TaSTAmu6lmfFo_out {color: #000000;}</style><circle cx="0" cy="0" r="939.8" id="ovzPGoUhU1bCgfsPD0sq_pad-10"/><circle cx="0" cy="0" r="660.4" id="ovzPGoUhU1bCgfsPD0sq_pad-11"/><circle cx="0" cy="0" r="679" id="ovzPGoUhU1bCgfsPD0sq_pad-12"/><polygon points="378.19933,156.65529 156.65529,378.19933 -156.65529,378.19933 -378.19933,156.65529 -378.19933,-156.65529 -156.65529,-378.19933 156.65529,-378.19933 378.19933,-156.65529" id="ovzPGoUhU1bCgfsPD0sq_pad-16"/><circle cx="0" cy="0" r="378.2" id="ovzPGoUhU1bCgfsPD0sq_pad-17"/><circle cx="0" cy="0" r="1351.6" id="zpwe9JwAkKvxntxlXDNB_pad-10"/><circle cx="0" cy="0" r="451.6" id="zpwe9JwAkKvxntxlXDNB_pad-11"/><circle cx="0" cy="0" r="1041.4" id="zpwe9JwAkKvxntxlXDNB_pad-12"/><circle cx="0" cy="0" r="1476.6" id="zpwe9JwAkKvxntxlXDNB_pad-13"/><circle cx="0" cy="0" r="762" id="zpwe9JwAkKvxntxlXDNB_pad-14"/><circle cx="0" cy="0" r="780.6" id="zpwe9JwAkKvxntxlXDNB_pad-15"/><circle cx="0" cy="0" r="551.6" id="zpwe9JwAkKvxntxlXDNB_pad-16"/><circle cx="0" cy="0" r="1375" id="izvYw90I53zmLvfKAbOC_pad-1"/><circle cx="0" cy="0" r="1250" id="izvYw90I53zmLvfKAbOC_pad-2"/><circle cx="0" cy="0" r="508" id="izvYw90I53zmLvfKAbOC_pad-3"/><circle cx="0" cy="0" r="450" id="izvYw90I53zmLvfKAbOC_pad-4"/><circle cx="0" cy="0" r="425" id="izvYw90I53zmLvfKAbOC_pad-5"/><circle cx="0" cy="0" r="406.5" id="izvYw90I53zmLvfKAbOC_pad-6"/><circle cx="0" cy="0" r="350" id="izvYw90I53zmLvfKAbOC_pad-7"/><circle cx="0" cy="0" r="175" id="izvYw90I53zmLvfKAbOC_pad-8"/><g id="SoGP2l_TaSTAmu6lmfFo_bottom_copper"><use xlink:href="#ovzPGoUhU1bCgfsPD0sq_pad-10" x="13970" y="91440"/><use xlink:href="#ovzPGoUhU1bCgfsPD0sq_pad-10" x="16510" y="91440"/><use xlink:href="#ovzPGoUhU1bCgfsPD0sq_pad-10" x="19050" y="91440"/><use xlink:href="#ovzPGoUhU1bCgfsPD0sq_pad-10" x="21590" y="91440"/><use xlink:href="#ovzPGoUhU1bCgfsPD0sq_pad-10" x="24130" y="91440"/><use xlink:href="#ovzPGoUhU1bCgfsPD0sq_pad-10" x="26670" y="91440"/><use xlink:href="#ovzPGoUhU1bCgfsPD0sq_pad-10" x="29210" y="91440"/><use xlink:href="#ovzPGoUhU1bCgfsPD0sq_pad-10" x="31750" y="91440"/><use xlink:href="#ovzPGoUhU1bCgfsPD0sq_pad-10" x="34290" y="91440"/><use xlink:href="#ovzPGoUhU1bCgfsPD0sq_pad-10" x="36830" y="91440"/><use xlink:href="#ovzPGoUhU1bCgfsPD0sq_pad-10" x="39370" y="91440"/><use xlink:href="#ovzPGoUhU1bCgfsPD0sq_pad-10" x="41910" y="91440"/><use xlink:href="#ovzPGoUhU1bCgfsPD0sq_pad-10" x="44450" y="91440"/><use xlink:href="#ovzPGoUhU1bCgfsPD0sq_pad-10" x="44450" y="93980"/><use xlink:href="#ovzPGoUhU1bCgfsPD0sq_pad-10" x="41910" y="93980"/><use xlink:href="#ovzPGoUhU1bCgfsPD0sq_pad-10" x="39370" y="93980"/><use xlink:href="#ovzPGoUhU1bCgfsPD0sq_pad-10" x="36830" y="93980"/><use xlink:href="#ovzPGoUhU1bCgfsPD0sq_pad-10" x="34290" y="93980"/><use xlink:href="#ovzPGoUhU1bCgfsPD0sq_pad-10" x="31750" y="93980"/><use xlink:href="#ovzPGoUhU1bCgfsPD0sq_pad-10" x="29210" y="93980"/><use xlink:href="#ovzPGoUhU1bCgfsPD0sq_pad-10" x="26670" y="93980"/><use xlink:href="#ovzPGoUhU1bCgfsPD0sq_pad-10" x="24130" y="93980"/><use xlink:href="#ovzPGoUhU1bCgfsPD0sq_pad-10" x="21590" y="93980"/><use xlink:href="#ovzPGoUhU1bCgfsPD0sq_pad-10" x="19050" y="93980"/><use xlink:href="#ovzPGoUhU1bCgfsPD0sq_pad-10" x="16510" y="93980"/><use xlink:href="#ovzPGoUhU1bCgfsPD0sq_pad-10" x="13970" y="93980"/><use xlink:href="#ovzPGoUhU1bCgfsPD0sq_pad-10" x="46990" y="91440"/><use xlink:href="#ovzPGoUhU1bCgfsPD0sq_pad-10" x="46990" y="93980"/><use xlink:href="#ovzPGoUhU1bCgfsPD0sq_pad-10" x="49530" y="91440"/><use xlink:href="#ovzPGoUhU1bCgfsPD0sq_pad-10" x="49530" y="93980"/><use xlink:href="#ovzPGoUhU1bCgfsPD0sq_pad-10" x="52070" y="91440"/><use xlink:href="#ovzPGoUhU1bCgfsPD0sq_pad-10" x="52070" y="93980"/><use xlink:href="#ovzPGoUhU1bCgfsPD0sq_pad-10" x="54610" y="91440"/><use xlink:href="#ovzPGoUhU1bCgfsPD0sq_pad-10" x="54610" y="93980"/><use xlink:href="#ovzPGoUhU1bCgfsPD0sq_pad-10" x="57150" y="91440"/><use xlink:href="#ovzPGoUhU1bCgfsPD0sq_pad-10" x="57150" y="93980"/><use xlink:href="#ovzPGoUhU1bCgfsPD0sq_pad-10" x="59690" y="91440"/><use xlink:href="#ovzPGoUhU1bCgfsPD0sq_pad-10" x="59690" y="93980"/><use xlink:href="#ovzPGoUhU1bCgfsPD0sq_pad-10" x="62230" y="91440"/><use xlink:href="#ovzPGoUhU1bCgfsPD0sq_pad-10" x="62230" y="93980"/><use xlink:href="#ovzPGoUhU1bCgfsPD0sq_pad-11" x="9835.2" y="60429.2"/><use xlink:href="#ovzPGoUhU1bCgfsPD0sq_pad-11" x="7295.2" y="60429.2"/><use xlink:href="#ovzPGoUhU1bCgfsPD0sq_pad-11" x="9822.4" y="53953.6"/><use xlink:href="#ovzPGoUhU1bCgfsPD0sq_pad-11" x="7282.4" y="53953.6"/><use xlink:href="#ovzPGoUhU1bCgfsPD0sq_pad-12" x="55170" y="68000"/><use xlink:href="#ovzPGoUhU1bCgfsPD0sq_pad-12" x="55170" y="70540"/><use xlink:href="#ovzPGoUhU1bCgfsPD0sq_pad-12" x="55170" y="73080"/><use xlink:href="#ovzPGoUhU1bCgfsPD0sq_pad-12" x="55170" y="75620"/><use xlink:href="#ovzPGoUhU1bCgfsPD0sq_pad-12" x="55170" y="78160"/><use xlink:href="#ovzPGoUhU1bCgfsPD0sq_pad-12" x="55170" y="80700"/><use xlink:href="#ovzPGoUhU1bCgfsPD0sq_pad-12" x="55170" y="83240"/><use xlink:href="#ovzPGoUhU1bCgfsPD0sq_pad-11" x="9770" y="57250"/><use xlink:href="#ovzPGoUhU1bCgfsPD0sq_pad-11" x="7230" y="57250"/><path d="M 7295.2 60429.2 7315.2 60502.8" fill="none" stroke-width="152.4"/><path d="M 44450 90252.8 44982 89720.8 M 44450 90252.8 44450 91440 M 44982 89720.8 49862.2 89720.8 50749.2 90607.8" fill="none" stroke-width="254"/><path d="M 50749.2 90607.8 50749.2 92659.2 49530 93878.4" fill="none" stroke-width="203.2"/><path d="M 49530 93878.4 49530 93980" fill="none" stroke-width="152.4"/><path d="M 19964.4 93878.4 19050 93878.4 M 19964.4 93878.4 21183.6 92659.2 22860 92659.2 24079.2 91440" fill="none" stroke-width="203.2"/><path d="M 19050 93878.4 19050 93980 M 24079.2 91440 24130 91440 M 28346.4 93878.4 29108.4 93878.4 M 28346.4 93878.4 27127.2 92659.2 25450.8 92659.2 24231.6 91440 M 29108.4 93878.4 29210 93980 M 24231.6 91440 24130 91440" fill="none" stroke-width="152.4"/><use xlink:href="#ovzPGoUhU1bCgfsPD0sq_pad-16" x="9753.6" y="79095.6"/><path d="M 57106.8 80096.8 57106.8 89056.8 M 57106.8 80096.8 55170 78160 M 55786.4 92678.6 60991.4 92678.6 M 55786.4 92678.6 54610 93855 54610 93980 M 55786.4 91987.8 55829.2 91945 M 55786.4 91987.8 55786.4 92678.6 M 55829.2 91945 55829.2 90334.4 57106.8 89056.8 M 60991.4 92678.6 62230 91440 M 9753.6 79095.6 9753.6 77822.2 9762.1 77813.7 M 7315.2 64312.4 7315.2 60502.8 M 9753.6 66751.2 9762.1 66759.7 M 9753.6 66751.2 9753.6 66750.8 M 9762.1 66759.7 9762.1 77813.7 M 9753.6 66750.8 7315.2 64312.4" fill="none" stroke-width="254"/><path d="M 50749.2 92659.2 53250 92625 54610 93980 M 21000 73500 19000 73500" fill="none" stroke-width="203.2"/><use xlink:href="#ovzPGoUhU1bCgfsPD0sq_pad-16" x="21000" y="73500"/><use xlink:href="#ovzPGoUhU1bCgfsPD0sq_pad-16" x="58000" y="87750"/><path d="M 58000 87750 59000 87750 60750 89500 60750 90380 59690 91440" fill="none" stroke-width="203.2"/><use xlink:href="#ovzPGoUhU1bCgfsPD0sq_pad-16" x="56209" y="87740.2"/><path d="M 56209 87740.2 56199.2 87750" fill="none" stroke-width="152.4"/><use xlink:href="#ovzPGoUhU1bCgfsPD0sq_pad-16" x="53875" y="87750"/><path d="M 53875 87750 56199.2 87750" fill="none" stroke-width="203.2"/><use xlink:href="#ovzPGoUhU1bCgfsPD0sq_pad-16" x="18991.8" y="73508.2"/><path d="M 18991.8 73508.2 19000 73500 M 33070.8 92659.2 34290 93878.4 34290 93980" fill="none" stroke-width="152.4"/><path d="M 33070.8 88634.4 10414 65977.6 10414 61008" fill="none" stroke-width="203.2"/><path d="M 33070.8 88634.4 33070.8 92659.2" fill="none" stroke-width="152.4"/><path d="M 10414 61008 9835.2 60429.2 M 9906 56083.2 9906 54102 M 9906 56083.2 22860 69037.2 M 37463 90095.8 38100 90732.8 38100 92659.2 39319.2 93878.4 M 9906 54102 9822.4 53953.6" fill="none" stroke-width="203.2"/><path d="M 39319.2 93878.4 39370 93980" fill="none" stroke-width="152.4"/><path d="M 37463 90095.8 36326.7 90095.8 22860 76629.1 22860 69037.2" fill="none" stroke-width="203.2"/><use xlink:href="#ovzPGoUhU1bCgfsPD0sq_pad-17" x="12625" y="85500"/><path d="M 12625 85500 15875 88750 17625 88750 19050 90175 19050 91440" fill="none" stroke-width="203.2"/><path d="M 16611.6 94030.8 16510 93980" fill="none" stroke-width="152.4"/><path d="M 55170 68000 57500 70330 57500 79125 58750 80375 58750 85500 61750 88500 62625 88500 63750 89625 63750 94948 62533.6 96164.4" fill="none" stroke-width="254"/><path d="M 44510.6 96164.4 44485.2 96189.8" fill="none" stroke-width="152.4"/><path d="M 44510.6 96164.4 62533.6 96164.4 M 18770.6 96189.8 16611.6 94030.8 M 18770.6 96189.8 44485.2 96189.8" fill="none" stroke-width="254"/><path d="M 58162 62230.6 58162 60780.2" fill="none" stroke-width="203.2"/><path d="M 24536.4 94030.8 24231.6 94030.8 M 43281.6 94335.6 43281.6 90678 M 24231.6 94030.8 24130 93980" fill="none" stroke-width="152.4"/><use xlink:href="#ovzPGoUhU1bCgfsPD0sq_pad-16" x="58162" y="60780.2"/><path d="M 55170 80700 54050 80700 M 43281.6 90218.4 43281.6 90678 M 53629.4 80279.4 54050 80700 M 53629.4 80279.4 53629.4 66763.2 58162 62230.6 M 53612.6 83451.7 52742.3 84322 M 53612.6 81137.4 54050 80700 M 49178 84322 43281.6 90218.4 M 53612.6 83451.7 53612.6 81137.4 M 52742.3 84322 49178 84322" fill="none" stroke-width="203.2"/><path d="M 43281.6 94335.6 42138.6 95478.6 25984.2 95478.6 24536.4 94030.8 M 22555.2 93878.4 21640.8 93878.4 M 22555.2 93878.4 23622 92811.6 24688.8 92811.6 25450.8 93573.6 M 21640.8 93878.4 21590 93980" fill="none" stroke-width="152.4"/><use xlink:href="#ovzPGoUhU1bCgfsPD0sq_pad-16" x="52605.4" y="83189.8"/><path d="M 40690.8 90470.9 40690.8 90982.8 M 40690.8 90470.9 47971.9 83189.8 52605.4 83189.8" fill="none" stroke-width="203.2"/><path d="M 25450.8 93573.6 25450.8 94413.2 26186 95148.4 39854 95148.4 40690.8 94311.6 40690.8 90982.8" fill="none" stroke-width="152.4"/><use xlink:href="#ovzPGoUhU1bCgfsPD0sq_pad-17" x="30500" y="83000"/><path d="M 30625 83000 35500 87875 M 30625 83000 30500 83000 M 35500 87875 35500 88375" fill="none" stroke-width="203.2"/><use xlink:href="#ovzPGoUhU1bCgfsPD0sq_pad-17" x="35500" y="88375"/><use xlink:href="#ovzPGoUhU1bCgfsPD0sq_pad-17" x="30625" y="89875"/><path d="M 30556.2 89943.8 30556.2 92786.2 M 30556.2 89943.8 30625 89875 M 30556.2 92786.2 31750 93980" fill="none" stroke-width="203.2"/></g><g id="SoGP2l_TaSTAmu6lmfFo_bottom_soldermask"><use xlink:href="#zpwe9JwAkKvxntxlXDNB_pad-10" x="68478.4" y="86250"/><use xlink:href="#zpwe9JwAkKvxntxlXDNB_pad-10" x="54000" y="43059.1"/><use xlink:href="#zpwe9JwAkKvxntxlXDNB_pad-11" x="8269.1" y="77195.3"/><use xlink:href="#zpwe9JwAkKvxntxlXDNB_pad-11" x="6469.1" y="77195.3"/><use xlink:href="#zpwe9JwAkKvxntxlXDNB_pad-11" x="8269.1" y="84308.5"/><use xlink:href="#zpwe9JwAkKvxntxlXDNB_pad-11" x="6469.1" y="84308.5"/><use xlink:href="#zpwe9JwAkKvxntxlXDNB_pad-12" x="13970" y="91440"/><use xlink:href="#zpwe9JwAkKvxntxlXDNB_pad-12" x="16510" y="91440"/><use xlink:href="#zpwe9JwAkKvxntxlXDNB_pad-12" x="19050" y="91440"/><use xlink:href="#zpwe9JwAkKvxntxlXDNB_pad-12" x="21590" y="91440"/><use xlink:href="#zpwe9JwAkKvxntxlXDNB_pad-12" x="24130" y="91440"/><use xlink:href="#zpwe9JwAkKvxntxlXDNB_pad-12" x="26670" y="91440"/><use xlink:href="#zpwe9JwAkKvxntxlXDNB_pad-12" x="29210" y="91440"/><use xlink:href="#zpwe9JwAkKvxntxlXDNB_pad-12" x="31750" y="91440"/><use xlink:href="#zpwe9JwAkKvxntxlXDNB_pad-12" x="34290" y="91440"/><use xlink:href="#zpwe9JwAkKvxntxlXDNB_pad-12" x="36830" y="91440"/><use xlink:href="#zpwe9JwAkKvxntxlXDNB_pad-12" x="39370" y="91440"/><use xlink:href="#zpwe9JwAkKvxntxlXDNB_pad-12" x="41910" y="91440"/><use xlink:href="#zpwe9JwAkKvxntxlXDNB_pad-12" x="44450" y="91440"/><use xlink:href="#zpwe9JwAkKvxntxlXDNB_pad-12" x="44450" y="93980"/><use xlink:href="#zpwe9JwAkKvxntxlXDNB_pad-12" x="41910" y="93980"/><use xlink:href="#zpwe9JwAkKvxntxlXDNB_pad-12" x="39370" y="93980"/><use xlink:href="#zpwe9JwAkKvxntxlXDNB_pad-12" x="36830" y="93980"/><use xlink:href="#zpwe9JwAkKvxntxlXDNB_pad-12" x="34290" y="93980"/><use xlink:href="#zpwe9JwAkKvxntxlXDNB_pad-12" x="31750" y="93980"/><use xlink:href="#zpwe9JwAkKvxntxlXDNB_pad-12" x="29210" y="93980"/><use xlink:href="#zpwe9JwAkKvxntxlXDNB_pad-12" x="26670" y="93980"/><use xlink:href="#zpwe9JwAkKvxntxlXDNB_pad-12" x="24130" y="93980"/><use xlink:href="#zpwe9JwAkKvxntxlXDNB_pad-12" x="21590" y="93980"/><use xlink:href="#zpwe9JwAkKvxntxlXDNB_pad-12" x="19050" y="93980"/><use xlink:href="#zpwe9JwAkKvxntxlXDNB_pad-12" x="16510" y="93980"/><use xlink:href="#zpwe9JwAkKvxntxlXDNB_pad-12" x="13970" y="93980"/><use xlink:href="#zpwe9JwAkKvxntxlXDNB_pad-12" x="46990" y="91440"/><use xlink:href="#zpwe9JwAkKvxntxlXDNB_pad-12" x="46990" y="93980"/><use xlink:href="#zpwe9JwAkKvxntxlXDNB_pad-12" x="49530" y="91440"/><use xlink:href="#zpwe9JwAkKvxntxlXDNB_pad-12" x="49530" y="93980"/><use xlink:href="#zpwe9JwAkKvxntxlXDNB_pad-12" x="52070" y="91440"/><use xlink:href="#zpwe9JwAkKvxntxlXDNB_pad-12" x="52070" y="93980"/><use xlink:href="#zpwe9JwAkKvxntxlXDNB_pad-12" x="54610" y="91440"/><use xlink:href="#zpwe9JwAkKvxntxlXDNB_pad-12" x="54610" y="93980"/><use xlink:href="#zpwe9JwAkKvxntxlXDNB_pad-12" x="57150" y="91440"/><use xlink:href="#zpwe9JwAkKvxntxlXDNB_pad-12" x="57150" y="93980"/><use xlink:href="#zpwe9JwAkKvxntxlXDNB_pad-12" x="59690" y="91440"/><use xlink:href="#zpwe9JwAkKvxntxlXDNB_pad-12" x="59690" y="93980"/><use xlink:href="#zpwe9JwAkKvxntxlXDNB_pad-12" x="62230" y="91440"/><use xlink:href="#zpwe9JwAkKvxntxlXDNB_pad-12" x="62230" y="93980"/><use xlink:href="#zpwe9JwAkKvxntxlXDNB_pad-13" x="9100" y="43713.4"/><use xlink:href="#zpwe9JwAkKvxntxlXDNB_pad-13" x="67100" y="43713.4"/><use xlink:href="#zpwe9JwAkKvxntxlXDNB_pad-13" x="67100" y="92713.4"/><use xlink:href="#zpwe9JwAkKvxntxlXDNB_pad-13" x="9100" y="92713.4"/><use xlink:href="#zpwe9JwAkKvxntxlXDNB_pad-14" x="9835.2" y="60429.2"/><use xlink:href="#zpwe9JwAkKvxntxlXDNB_pad-14" x="7295.2" y="60429.2"/><use xlink:href="#zpwe9JwAkKvxntxlXDNB_pad-14" x="9822.4" y="53953.6"/><use xlink:href="#zpwe9JwAkKvxntxlXDNB_pad-14" x="7282.4" y="53953.6"/><use xlink:href="#zpwe9JwAkKvxntxlXDNB_pad-15" x="55170" y="68000"/><use xlink:href="#zpwe9JwAkKvxntxlXDNB_pad-15" x="55170" y="70540"/><use xlink:href="#zpwe9JwAkKvxntxlXDNB_pad-15" x="55170" y="73080"/><use xlink:href="#zpwe9JwAkKvxntxlXDNB_pad-15" x="55170" y="75620"/><use xlink:href="#zpwe9JwAkKvxntxlXDNB_pad-15" x="55170" y="78160"/><use xlink:href="#zpwe9JwAkKvxntxlXDNB_pad-15" x="55170" y="80700"/><use xlink:href="#zpwe9JwAkKvxntxlXDNB_pad-15" x="55170" y="83240"/><use xlink:href="#zpwe9JwAkKvxntxlXDNB_pad-14" x="9770" y="57250"/><use xlink:href="#zpwe9JwAkKvxntxlXDNB_pad-14" x="7230" y="57250"/><use xlink:href="#zpwe9JwAkKvxntxlXDNB_pad-16" x="7500" y="69750"/><use xlink:href="#zpwe9JwAkKvxntxlXDNB_pad-16" x="7500" y="66750"/></g><g id="SoGP2l_TaSTAmu6lmfFo_bottom_drill1"><use xlink:href="#izvYw90I53zmLvfKAbOC_pad-1" x="9100" y="43713"/><use xlink:href="#izvYw90I53zmLvfKAbOC_pad-1" x="9100" y="92713"/><use xlink:href="#izvYw90I53zmLvfKAbOC_pad-1" x="67100" y="92713"/><use xlink:href="#izvYw90I53zmLvfKAbOC_pad-1" x="67100" y="43713"/><use xlink:href="#izvYw90I53zmLvfKAbOC_pad-2" x="54000" y="43059"/><use xlink:href="#izvYw90I53zmLvfKAbOC_pad-2" x="68478" y="86250"/><use xlink:href="#izvYw90I53zmLvfKAbOC_pad-3" x="52070" y="93980"/><use xlink:href="#izvYw90I53zmLvfKAbOC_pad-3" x="24130" y="93980"/><use xlink:href="#izvYw90I53zmLvfKAbOC_pad-3" x="62230" y="93980"/><use xlink:href="#izvYw90I53zmLvfKAbOC_pad-3" x="62230" y="91440"/><use xlink:href="#izvYw90I53zmLvfKAbOC_pad-3" x="59690" y="93980"/><use xlink:href="#izvYw90I53zmLvfKAbOC_pad-3" x="59690" y="91440"/><use xlink:href="#izvYw90I53zmLvfKAbOC_pad-3" x="57150" y="93980"/><use xlink:href="#izvYw90I53zmLvfKAbOC_pad-3" x="57150" y="91440"/><use xlink:href="#izvYw90I53zmLvfKAbOC_pad-3" x="54610" y="93980"/><use xlink:href="#izvYw90I53zmLvfKAbOC_pad-3" x="54610" y="91440"/><use xlink:href="#izvYw90I53zmLvfKAbOC_pad-3" x="49530" y="93980"/><use xlink:href="#izvYw90I53zmLvfKAbOC_pad-3" x="49530" y="91440"/><use xlink:href="#izvYw90I53zmLvfKAbOC_pad-3" x="46990" y="93980"/><use xlink:href="#izvYw90I53zmLvfKAbOC_pad-3" x="46990" y="91440"/><use xlink:href="#izvYw90I53zmLvfKAbOC_pad-3" x="13970" y="93980"/><use xlink:href="#izvYw90I53zmLvfKAbOC_pad-3" x="16510" y="93980"/><use xlink:href="#izvYw90I53zmLvfKAbOC_pad-3" x="19050" y="93980"/><use xlink:href="#izvYw90I53zmLvfKAbOC_pad-3" x="21590" y="93980"/><use xlink:href="#izvYw90I53zmLvfKAbOC_pad-3" x="13970" y="91440"/><use xlink:href="#izvYw90I53zmLvfKAbOC_pad-3" x="16510" y="91440"/><use xlink:href="#izvYw90I53zmLvfKAbOC_pad-3" x="19050" y="91440"/><use xlink:href="#izvYw90I53zmLvfKAbOC_pad-3" x="21590" y="91440"/><use xlink:href="#izvYw90I53zmLvfKAbOC_pad-3" x="24130" y="91440"/><use xlink:href="#izvYw90I53zmLvfKAbOC_pad-3" x="26670" y="91440"/><use xlink:href="#izvYw90I53zmLvfKAbOC_pad-3" x="29210" y="91440"/><use xlink:href="#izvYw90I53zmLvfKAbOC_pad-3" x="31750" y="91440"/><use xlink:href="#izvYw90I53zmLvfKAbOC_pad-3" x="34290" y="91440"/><use xlink:href="#izvYw90I53zmLvfKAbOC_pad-3" x="36830" y="91440"/><use xlink:href="#izvYw90I53zmLvfKAbOC_pad-3" x="39370" y="91440"/><use xlink:href="#izvYw90I53zmLvfKAbOC_pad-3" x="41910" y="91440"/><use xlink:href="#izvYw90I53zmLvfKAbOC_pad-3" x="44450" y="91440"/><use xlink:href="#izvYw90I53zmLvfKAbOC_pad-3" x="44450" y="93980"/><use xlink:href="#izvYw90I53zmLvfKAbOC_pad-3" x="41910" y="93980"/><use xlink:href="#izvYw90I53zmLvfKAbOC_pad-3" x="39370" y="93980"/><use xlink:href="#izvYw90I53zmLvfKAbOC_pad-3" x="36830" y="93980"/><use xlink:href="#izvYw90I53zmLvfKAbOC_pad-3" x="34290" y="93980"/><use xlink:href="#izvYw90I53zmLvfKAbOC_pad-3" x="31750" y="93980"/><use xlink:href="#izvYw90I53zmLvfKAbOC_pad-3" x="29210" y="93980"/><use xlink:href="#izvYw90I53zmLvfKAbOC_pad-3" x="26670" y="93980"/><use xlink:href="#izvYw90I53zmLvfKAbOC_pad-3" x="52070" y="91440"/><use xlink:href="#izvYw90I53zmLvfKAbOC_pad-4" x="7500" y="66750"/><use xlink:href="#izvYw90I53zmLvfKAbOC_pad-4" x="7500" y="69750"/><use xlink:href="#izvYw90I53zmLvfKAbOC_pad-5" x="55170" y="83240"/><use xlink:href="#izvYw90I53zmLvfKAbOC_pad-5" x="55170" y="80700"/><use xlink:href="#izvYw90I53zmLvfKAbOC_pad-5" x="55170" y="78160"/><use xlink:href="#izvYw90I53zmLvfKAbOC_pad-5" x="55170" y="75620"/><use xlink:href="#izvYw90I53zmLvfKAbOC_pad-5" x="55170" y="73080"/><use xlink:href="#izvYw90I53zmLvfKAbOC_pad-5" x="55170" y="70540"/><use xlink:href="#izvYw90I53zmLvfKAbOC_pad-5" x="55170" y="68000"/><use xlink:href="#izvYw90I53zmLvfKAbOC_pad-6" x="7230" y="57250"/><use xlink:href="#izvYw90I53zmLvfKAbOC_pad-6" x="9835" y="60429"/><use xlink:href="#izvYw90I53zmLvfKAbOC_pad-6" x="7295" y="60429"/><use xlink:href="#izvYw90I53zmLvfKAbOC_pad-6" x="9822" y="53954"/><use xlink:href="#izvYw90I53zmLvfKAbOC_pad-6" x="7282" y="53954"/><use xlink:href="#izvYw90I53zmLvfKAbOC_pad-6" x="9770" y="57250"/><use xlink:href="#izvYw90I53zmLvfKAbOC_pad-7" x="6469" y="84309"/><use xlink:href="#izvYw90I53zmLvfKAbOC_pad-7" x="8269" y="84309"/><use xlink:href="#izvYw90I53zmLvfKAbOC_pad-7" x="6469" y="77195"/><use xlink:href="#izvYw90I53zmLvfKAbOC_pad-7" x="8269" y="77195"/><use xlink:href="#izvYw90I53zmLvfKAbOC_pad-8" x="30625" y="89875"/><use xlink:href="#izvYw90I53zmLvfKAbOC_pad-8" x="35500" y="88375"/><use xlink:href="#izvYw90I53zmLvfKAbOC_pad-8" x="30500" y="83000"/><use xlink:href="#izvYw90I53zmLvfKAbOC_pad-8" x="52605" y="83190"/><use xlink:href="#izvYw90I53zmLvfKAbOC_pad-8" x="58162" y="60780"/><use xlink:href="#izvYw90I53zmLvfKAbOC_pad-8" x="12625" y="85500"/><use xlink:href="#izvYw90I53zmLvfKAbOC_pad-8" x="18992" y="73508"/><use xlink:href="#izvYw90I53zmLvfKAbOC_pad-8" x="53875" y="87750"/><use xlink:href="#izvYw90I53zmLvfKAbOC_pad-8" x="56209" y="87740"/><use xlink:href="#izvYw90I53zmLvfKAbOC_pad-8" x="58000" y="87750"/><use xlink:href="#izvYw90I53zmLvfKAbOC_pad-8" x="21000" y="73500"/><use xlink:href="#izvYw90I53zmLvfKAbOC_pad-8" x="9754" y="79096"/></g><clipPath id="SoGP2l_TaSTAmu6lmfFo_bottom_outline"><path d="M 5580 43430 5587.8 43136.3 5621.2 42844.4 5679.9 42556.5 5763.4 42274.8 5871.2 42001.4 6002.4 41738.5 6156 41488.1 6330.9 41252 6525.7 41032 6738.9 40829.8 6968.9 40647 7214 40484.9 7472.2 40344.8 7741.7 40227.8 8020.4 40134.6 8306.1 40066.1 8596.7 40022.8 8890 40005 22860 40005 24130 41592.5 24130 74930 24139.7 75151.4 24168.6 75371.1 24216.5 75587.4 24283.2 75798.7 24368 76003.5 24470.3 76200 24589.4 76386.9 24724.2 76562.7 24874 76726.1 25037.3 76875.8 25213.1 77010.6 25400 77129.7 25596.6 77232 25801.3 77316.8 26012.6 77383.5 26228.9 77431.4 26448.6 77460.3 26670 77470 46990 77470 47211.4 77460.3 47431.1 77431.4 47647.4 77383.5 47858.7 77316.8 48063.5 77232 48260 77129.7 48446.9 77010.6 48622.7 76875.8 48786.1 76726.1 48935.8 76562.7 49070.6 76386.9 49189.7 76200 49292 76003.5 49376.8 75798.7 49443.5 75587.4 49491.4 75371.1 49520.3 75151.4 49530 74930 49530 41592.5 50800 40005 67290 40005 67556.6 39999.8 67822.6 40017.9 68086 40059.1 68344.8 40123.1 68597 40209.4 68840.8 40317.4 69074.2 40446.2 69295.5 40594.8 69503.1 40762.2 69695.2 40947 69870.5 41147.9 70027.6 41363.3 70165.4 41591.6 70282.7 41830.9 70378.8 42079.7 70452.7 42335.8 70504.1 42597.4 70532.5 42862.5 70532.5 94717.5 70521.9 94960 70490.2 95200.7 70437.7 95437.7 70364.7 95669.2 70271.8 95893.4 70159.7 96108.8 70029.3 96313.5 69881.5 96506.1 69717.5 96685 69538.6 96849 69346 96996.8 69141.3 97127.2 68925.9 97239.3 68701.7 97332.2 68470.2 97405.2 68233.2 97457.7 67992.5 97489.4 67750 97500 9066.3 97500 8762.5 97486.7 8460.9 97447 8164 97381.2 7873.9 97289.8 7592.9 97173.4 7323.2 97032.9 7066.7 96869.5 6825.4 96684.4 6601.1 96478.9 6395.6 96254.6 6210.5 96013.4 6047.1 95756.8 5906.6 95487.1 5790.3 95206.1 5698.8 94916 5633 94619.1 5593.3 94317.5 5580 94013.7 5580 43430" fill="none" stroke-width="254"/></clipPath><mask id="SoGP2l_TaSTAmu6lmfFo_bottom_mech-mask"><g fill="#000" stroke="#000"><rect x="5580" y="39999.8" width="64952.5" height="57500.2" fill="#fff"/><use xlink:href="#SoGP2l_TaSTAmu6lmfFo_bottom_drill1"/></g></mask><mask id="SoGP2l_TaSTAmu6lmfFo_bottom_cf-mask"><g fill="#fff" stroke="#fff"><use xlink:href="#SoGP2l_TaSTAmu6lmfFo_bottom_soldermask"/></g></mask><mask id="SoGP2l_TaSTAmu6lmfFo_bottom_sm-mask"><g fill="#000" stroke="#000"><rect x="5580" y="39999.8" width="64952.5" height="57500.2" fill="#fff"/><use xlink:href="#SoGP2l_TaSTAmu6lmfFo_bottom_soldermask"/></g></mask></defs><g transform="translate(0,137499.8) scale(1,-1)"><g mask="url(#SoGP2l_TaSTAmu6lmfFo_bottom_mech-mask)" clip-path="url(#SoGP2l_TaSTAmu6lmfFo_bottom_outline)" transform="translate(76112.5,0) scale(-1,1)"><rect x="5580" y="39999.8" width="64952.5" height="57500.2" fill="currentColor" class="SoGP2l_TaSTAmu6lmfFo_fr4"/><use xlink:href="#SoGP2l_TaSTAmu6lmfFo_bottom_copper" fill="currentColor" stroke="currentColor" class="SoGP2l_TaSTAmu6lmfFo_cu"/><use xlink:href="#SoGP2l_TaSTAmu6lmfFo_bottom_copper" fill="currentColor" stroke="currentColor" class="SoGP2l_TaSTAmu6lmfFo_cf" mask="url(#SoGP2l_TaSTAmu6lmfFo_bottom_cf-mask)"/><g mask="url(#SoGP2l_TaSTAmu6lmfFo_bottom_sm-mask)"><rect x="5580" y="39999.8" width="64952.5" height="57500.2" fill="currentColor" class="SoGP2l_TaSTAmu6lmfFo_sm"/></g></g></g></svg>