<svg version="1.1" xmlns="http://www.w3.org/2000/svg" xmlns:xlink="http://www.w3.org/1999/xlink" stroke-linecap="round" stroke-linejoin="round" stroke-width="0" fill-rule="evenodd" width="57.0357mm" height="48.738mm" viewBox="6134.1 47145 57035.7 48738" id="sw86CENDCdXyy4gqseMr"><defs><rect x="-582.3" y="-732.65" width="1164.6" height="1465.3" id="sw86CENDCdXyy4gqseMr_pad-10"/><rect x="-500" y="-2300" width="1000" height="4600" id="sw86CENDCdXyy4gqseMr_pad-11"/><rect x="-800" y="-1700" width="1600" height="3400" id="sw86CENDCdXyy4gqseMr_pad-12"/><rect x="-525" y="-700" width="1050" height="1400" id="sw86CENDCdXyy4gqseMr_pad-13"/><circle cx="0" cy="0" r="939.8" id="sw86CENDCdXyy4gqseMr_pad-14"/><rect x="-1000" y="-1000" width="2000" height="2000" id="sw86CENDCdXyy4gqseMr_pad-15"/><circle cx="0" cy="0" r="660.4" id="sw86CENDCdXyy4gqseMr_pad-16"/><circle cx="0" cy="0" r="679" id="sw86CENDCdXyy4gqseMr_pad-17"/><rect x="-399.35" y="-486.95" width="798.7" height="973.9" id="sw86CENDCdXyy4gqseMr_pad-18"/><rect x="-300" y="-775" width="600" height="1550" id="sw86CENDCdXyy4gqseMr_pad-19"/><rect x="-600" y="-900" width="1200" height="1800" id="sw86CENDCdXyy4gqseMr_pad-20"/><rect x="-750" y="-350" width="1500" height="700" id="sw86CENDCdXyy4gqseMr_pad-21"/><rect x="-300" y="-500" width="600" height="1000" id="sw86CENDCdXyy4gqseMr_pad-22"/><rect x="-400" y="-500" width="800" height="1000" id="sw86CENDCdXyy4gqseMr_pad-23"/><polygon points="378.19933,156.65529 156.65529,378.19933 -156.65529,378.19933 -378.19933,156.65529 -378.19933,-156.65529 -156.65529,-378.19933 156.65529,-378.19933 378.19933,-156.65529" id="sw86CENDCdXyy4gqseMr_pad-27"/><circle cx="0" cy="0" r="378.2" id="sw86CENDCdXyy4gqseMr_pad-28"/></defs><g transform="translate(0,143028) scale(1,-1)" fill="currentColor" stroke="currentColor"><use xlink:href="#sw86CENDCdXyy4gqseMr_pad-10" x="17790.7" y="86824.3"/><use xlink:href="#sw86CENDCdXyy4gqseMr_pad-10" x="16039.9" y="86824.3"/><use xlink:href="#sw86CENDCdXyy4gqseMr_pad-11" x="15888.3" y="82293.2"/><use xlink:href="#sw86CENDCdXyy4gqseMr_pad-11" x="17888.3" y="82293.2"/><use xlink:href="#sw86CENDCdXyy4gqseMr_pad-12" x="20288.3" y="77093.2"/><use xlink:href="#sw86CENDCdXyy4gqseMr_pad-12" x="13488.3" y="77093.2"/><use xlink:href="#sw86CENDCdXyy4gqseMr_pad-13" x="8169.1" y="78995.3"/><use xlink:href="#sw86CENDCdXyy4gqseMr_pad-13" x="6659.1" y="78995.3"/><use xlink:href="#sw86CENDCdXyy4gqseMr_pad-13" x="8169.1" y="75395.3"/><use xlink:href="#sw86CENDCdXyy4gqseMr_pad-13" x="6659.1" y="75395.3"/><use xlink:href="#sw86CENDCdXyy4gqseMr_pad-13" x="8169.1" y="86108.5"/><use xlink:href="#sw86CENDCdXyy4gqseMr_pad-13" x="6659.1" y="86108.5"/><use xlink:href="#sw86CENDCdXyy4gqseMr_pad-13" x="8169.1" y="82508.5"/><use xlink:href="#sw86CENDCdXyy4gqseMr_pad-13" x="6659.1" y="82508.5"/><use xlink:href="#sw86CENDCdXyy4gqseMr_pad-14" x="13970" y="91440"/><use xlink:href="#sw86CENDCdXyy4gqseMr_pad-14" x="16510" y="91440"/><use xlink:href="#sw86CENDCdXyy4gqseMr_pad-14" x="19050" y="91440"/><use xlink:href="#sw86CENDCdXyy4gqseMr_pad-14" x="21590" y="91440"/><use xlink:href="#sw86CENDCdXyy4gqseMr_pad-14" x="24130" y="91440"/><use xlink:href="#sw86CENDCdXyy4gqseMr_pad-14" x="26670" y="91440"/><use xlink:href="#sw86CENDCdXyy4gqseMr_pad-14" x="29210" y="91440"/><use xlink:href="#sw86CENDCdXyy4gqseMr_pad-14" x="31750" y="91440"/><use xlink:href="#sw86CENDCdXyy4gqseMr_pad-14" x="34290" y="91440"/><use xlink:href="#sw86CENDCdXyy4gqseMr_pad-14" x="36830" y="91440"/><use xlink:href="#sw86CENDCdXyy4gqseMr_pad-14" x="39370" y="91440"/><use xlink:href="#sw86CENDCdXyy4gqseMr_pad-14" x="41910" y="91440"/><use xlink:href="#sw86CENDCdXyy4gqseMr_pad-14" x="44450" y="91440"/><use xlink:href="#sw86CENDCdXyy4gqseMr_pad-14" x="44450" y="93980"/><use xlink:href="#sw86CENDCdXyy4gqseMr_pad-14" x="41910" y="93980"/><use xlink:href="#sw86CENDCdXyy4gqseMr_pad-14" x="39370" y="93980"/><use xlink:href="#sw86CENDCdXyy4gqseMr_pad-14" x="36830" y="93980"/><use xlink:href="#sw86CENDCdXyy4gqseMr_pad-14" x="34290" y="93980"/><use xlink:href="#sw86CENDCdXyy4gqseMr_pad-14" x="31750" y="93980"/><use xlink:href="#sw86CENDCdXyy4gqseMr_pad-14" x="29210" y="93980"/><use xlink:href="#sw86CENDCdXyy4gqseMr_pad-14" x="26670" y="93980"/><use xlink:href="#sw86CENDCdXyy4gqseMr_pad-14" x="24130" y="93980"/><use xlink:href="#sw86CENDCdXyy4gqseMr_pad-14" x="21590" y="93980"/><use xlink:href="#sw86CENDCdXyy4gqseMr_pad-14" x="19050" y="93980"/><use xlink:href="#sw86CENDCdXyy4gqseMr_pad-14" x="16510" y="93980"/><use xlink:href="#sw86CENDCdXyy4gqseMr_pad-14" x="13970" y="93980"/><use xlink:href="#sw86CENDCdXyy4gqseMr_pad-14" x="46990" y="91440"/><use xlink:href="#sw86CENDCdXyy4gqseMr_pad-14" x="46990" y="93980"/><use xlink:href="#sw86CENDCdXyy4gqseMr_pad-14" x="49530" y="91440"/><use xlink:href="#sw86CENDCdXyy4gqseMr_pad-14" x="49530" y="93980"/><use xlink:href="#sw86CENDCdXyy4gqseMr_pad-14" x="52070" y="91440"/><use xlink:href="#sw86CENDCdXyy4gqseMr_pad-14" x="52070" y="93980"/><use xlink:href="#sw86CENDCdXyy4gqseMr_pad-14" x="54610" y="91440"/><use xlink:href="#sw86CENDCdXyy4gqseMr_pad-14" x="54610" y="93980"/><use xlink:href="#sw86CENDCdXyy4gqseMr_pad-14" x="57150" y="91440"/><use xlink:href="#sw86CENDCdXyy4gqseMr_pad-14" x="57150" y="93980"/><use xlink:href="#sw86CENDCdXyy4gqseMr_pad-14" x="59690" y="91440"/><use xlink:href="#sw86CENDCdXyy4gqseMr_pad-14" x="59690" y="93980"/><use xlink:href="#sw86CENDCdXyy4gqseMr_pad-14" x="62230" y="91440"/><use xlink:href="#sw86CENDCdXyy4gqseMr_pad-14" x="62230" y="93980"/><use xlink:href="#sw86CENDCdXyy4gqseMr_pad-15" x="28985.2" y="86203.6"/><use xlink:href="#sw86CENDCdXyy4gqseMr_pad-15" x="22985.2" y="86203.6"/><use xlink:href="#sw86CENDCdXyy4gqseMr_pad-15" x="51158.4" y="86203.6"/><use xlink:href="#sw86CENDCdXyy4gqseMr_pad-15" x="45158.4" y="86203.6"/><use xlink:href="#sw86CENDCdXyy4gqseMr_pad-15" x="40185.6" y="86203.6"/><use xlink:href="#sw86CENDCdXyy4gqseMr_pad-15" x="34185.6" y="86203.6"/><use xlink:href="#sw86CENDCdXyy4gqseMr_pad-16" x="9835.2" y="60429.2"/><use xlink:href="#sw86CENDCdXyy4gqseMr_pad-16" x="7295.2" y="60429.2"/><use xlink:href="#sw86CENDCdXyy4gqseMr_pad-16" x="9822.4" y="53953.6"/><use xlink:href="#sw86CENDCdXyy4gqseMr_pad-16" x="7282.4" y="53953.6"/><use xlink:href="#sw86CENDCdXyy4gqseMr_pad-17" x="55170" y="68000"/><use xlink:href="#sw86CENDCdXyy4gqseMr_pad-17" x="55170" y="70540"/><use xlink:href="#sw86CENDCdXyy4gqseMr_pad-17" x="55170" y="73080"/><use xlink:href="#sw86CENDCdXyy4gqseMr_pad-17" x="55170" y="75620"/><use xlink:href="#sw86CENDCdXyy4gqseMr_pad-17" x="55170" y="78160"/><use xlink:href="#sw86CENDCdXyy4gqseMr_pad-17" x="55170" y="80700"/><use xlink:href="#sw86CENDCdXyy4gqseMr_pad-17" x="55170" y="83240"/><use xlink:href="#sw86CENDCdXyy4gqseMr_pad-16" x="9770" y="57250"/><use xlink:href="#sw86CENDCdXyy4gqseMr_pad-16" x="7230" y="57250"/><use xlink:href="#sw86CENDCdXyy4gqseMr_pad-10" x="55124.6" y="64000"/><use xlink:href="#sw86CENDCdXyy4gqseMr_pad-10" x="56875.4" y="64000"/><use xlink:href="#sw86CENDCdXyy4gqseMr_pad-10" x="55124.6" y="61750"/><use xlink:href="#sw86CENDCdXyy4gqseMr_pad-10" x="56875.4" y="61750"/><use xlink:href="#sw86CENDCdXyy4gqseMr_pad-18" x="60389.6" y="82750"/><use xlink:href="#sw86CENDCdXyy4gqseMr_pad-18" x="62020" y="82750"/><use xlink:href="#sw86CENDCdXyy4gqseMr_pad-18" x="60434.8" y="80872"/><use xlink:href="#sw86CENDCdXyy4gqseMr_pad-18" x="62065.2" y="80872"/><use xlink:href="#sw86CENDCdXyy4gqseMr_pad-19" x="55960" y="59270"/><use xlink:href="#sw86CENDCdXyy4gqseMr_pad-19" x="56960" y="59270"/><use xlink:href="#sw86CENDCdXyy4gqseMr_pad-19" x="57960" y="59270"/><use xlink:href="#sw86CENDCdXyy4gqseMr_pad-19" x="58960" y="59270"/><use xlink:href="#sw86CENDCdXyy4gqseMr_pad-19" x="59960" y="59270"/><use xlink:href="#sw86CENDCdXyy4gqseMr_pad-19" x="60960" y="59270"/><use xlink:href="#sw86CENDCdXyy4gqseMr_pad-20" x="54660" y="55545"/><use xlink:href="#sw86CENDCdXyy4gqseMr_pad-20" x="62260" y="55545"/><use xlink:href="#sw86CENDCdXyy4gqseMr_pad-21" x="9250" y="66000"/><use xlink:href="#sw86CENDCdXyy4gqseMr_pad-21" x="9250" y="67500"/><use xlink:href="#sw86CENDCdXyy4gqseMr_pad-21" x="9250" y="70500"/><use xlink:href="#sw86CENDCdXyy4gqseMr_pad-22" x="6500" y="64600"/><use xlink:href="#sw86CENDCdXyy4gqseMr_pad-23" x="8600" y="64600"/><use xlink:href="#sw86CENDCdXyy4gqseMr_pad-22" x="6500" y="71900"/><use xlink:href="#sw86CENDCdXyy4gqseMr_pad-23" x="8600" y="71900"/><use xlink:href="#sw86CENDCdXyy4gqseMr_pad-19" x="55960" y="51770"/><use xlink:href="#sw86CENDCdXyy4gqseMr_pad-19" x="56960" y="51770"/><use xlink:href="#sw86CENDCdXyy4gqseMr_pad-19" x="57960" y="51770"/><use xlink:href="#sw86CENDCdXyy4gqseMr_pad-19" x="58960" y="51770"/><use xlink:href="#sw86CENDCdXyy4gqseMr_pad-19" x="59960" y="51770"/><use xlink:href="#sw86CENDCdXyy4gqseMr_pad-19" x="60960" y="51770"/><use xlink:href="#sw86CENDCdXyy4gqseMr_pad-20" x="54660" y="48045"/><use xlink:href="#sw86CENDCdXyy4gqseMr_pad-20" x="62260" y="48045"/><path d="M 56997.6 59283.6 56960 59270" fill="none" stroke-width="152.4"/><path d="M 62194.6 50901.6 61292.2 49999.2 M 53574.6 67568 53574.6 69037.2 M 51206.4 86203.6 51206.4 88349.2 53340 90482.8 53340 92710" fill="none" stroke-width="254"/><path d="M 51206.4 86203.6 51158.4 86203.6 M 27889.2 91897.2 27127.2 92659.2 25450.8 92659.2 24231.6 91440 24130 91440" fill="none" stroke-width="152.4"/><path d="M 38576 86203.6 40185.6 86203.6 M 38576 86203.6 36829.4 84457 29230 84457 28985.2 84701.8 28985.2 86203.6 M 36017.2 93980 34372.2 95625 30855 95625 29210 93980 M 17830.8 90982.8 16039.9 89191.9" fill="none" stroke-width="254"/><path d="M 17830.8 90982.8 17830.8 92659.2 19050 93878.4" fill="none" stroke-width="203.2"/><path d="M 19050 93878.4 19050 93980" fill="none" stroke-width="152.4"/><use xlink:href="#sw86CENDCdXyy4gqseMr_pad-27" x="9753.6" y="79095.6"/><path d="M 56960 51770 56960 50290 M 57250.8 49999.2 61292.2 49999.2 M 56875.4 59405.8 56875.4 61750 M 56875.4 59405.8 56953.1 59328.1 56997.6 59283.6 M 56875.4 64000 56750 64125.4 56750 65250 56000 66000 55142.6 66000 53574.6 67568 M 58814.4 62189.4 58375 61750 M 58814.4 62189.4 58814.4 65764.1" fill="none" stroke-width="254"/><path d="M 58814.4 65764.1 55541.3 69037.2 53949.6 69037.2 53574.6 69037.2" fill="none" stroke-width="203.2"/><path d="M 56953.1 58046.9 62194.6 52805.4 62194.6 50901.6 M 57250.8 49999.2 56960 50290 M 53340 92710 54610 93980 M 55170 78160 53250 76240 53250 69500 53712.8 69037.2 53949.6 69037.2 M 7282.4 57197.6 7282.4 53953.6 M 7282.4 57197.6 7230 57250 7230 60364 7295.2 60429.2 M 9250 66000 10625 66000 11000 65625 11000 64875 8250 62125 7750 62125 7295.2 61670.2 7295.2 60429.2 M 9753.6 79095.6 12408 81750 14375 81750 14918.2 82293.2 15888.3 82293.2 M 16039.9 86750 16039.9 86824.3 M 16039.9 86750 16039.9 82444.8 15888.3 82293.2 M 10483.5 86108.5 8169.1 86108.5 M 10483.5 86108.5 11125 86750 16039.9 86750 M 16039.9 86824.3 16039.9 89191.9" fill="none" stroke-width="254"/><path d="M 27889.2 89860.8 27889.2 91897.2" fill="none" stroke-width="203.2"/><path d="M 27889.2 89860.8 28985.2 88764.8 28985.2 86203.6" fill="none" stroke-width="254"/><path d="M 48666.4 93980 49530 93980 M 48183.8 94462.6 48183.8 94974.5 M 48183.8 94462.6 48666.4 93980" fill="none" stroke-width="203.2"/><path d="M 47533.3 95625 38475 95625 M 47533.3 95625 48183.8 94974.5" fill="none" stroke-width="254"/><path d="M 36830 93980 36017.2 93980" fill="none" stroke-width="203.2"/><path d="M 36830 93980 38475 95625 M 56875.4 61750 58375 61750 M 56953.1 59328.1 56953.1 58046.9 M 8269.4 79095.6 8169.1 78995.3 M 8269.4 79095.6 9753.6 79095.6" fill="none" stroke-width="254"/><path d="M 6659.1 75395.3 6750 75304.4" fill="none" stroke-width="152.4"/><path d="M 6750 75304.4 6750 73750" fill="none" stroke-width="203.2"/><use xlink:href="#sw86CENDCdXyy4gqseMr_pad-27" x="21000" y="73500"/><use xlink:href="#sw86CENDCdXyy4gqseMr_pad-27" x="58000" y="87750"/><path d="M 21000 73875 21000 73500" fill="none" stroke-width="203.2"/><use xlink:href="#sw86CENDCdXyy4gqseMr_pad-27" x="56209" y="87740.2"/><path d="M 56209 87740.2 56218.8 87750" fill="none" stroke-width="152.4"/><path d="M 56218.8 87750 58000 87750 M 53875 87750 53250 87125" fill="none" stroke-width="203.2"/><use xlink:href="#sw86CENDCdXyy4gqseMr_pad-27" x="53875" y="87750"/><path d="M 53250 87125 53250 85481.4" fill="none" stroke-width="203.2"/><use xlink:href="#sw86CENDCdXyy4gqseMr_pad-27" x="18991.8" y="73508.2"/><path d="M 6991.8 73508.2 6750 73750 M 6991.8 73508.2 18991.8 73508.2 M 21000 73875 22394.1 75269.1 22394.1 77111.1 M 51400.8 83632.2 53250 85481.4 M 28915.2 83632.2 22394.1 77111.1 M 28915.2 83632.2 51400.8 83632.2 M 6659.1 82508.5 6659.1 81215.9 6750 81125 8875 81125 12625 84875 12625 85500" fill="none" stroke-width="203.2"/><use xlink:href="#sw86CENDCdXyy4gqseMr_pad-28" x="12625" y="85500"/><path d="M 26670 89795 26670 91440 M 22985.2 87735.2 22985.2 86203.6 M 22985.2 87735.2 24375 89125 26000 89125 26670 89795 M 31851.6 91440 33070.8 90220.8" fill="none" stroke-width="203.2"/><path d="M 31851.6 91440 31750 91440" fill="none" stroke-width="152.4"/><path d="M 42544.8 86203.6 45158.4 86203.6 M 42544.8 86203.6 38527.6 90220.8 33070.8 90220.8 M 34185.6 87814.4 34185.6 86203.6 M 34185.6 87814.4 32875 89125 30125 89125 29210 90040 29210 91440" fill="none" stroke-width="203.2"/><path d="M 16459.2 94030.8 14020.8 94030.8" fill="none" stroke-width="254"/><path d="M 14020.8 94030.8 13970 93980 M 16459.2 94030.8 16510 93980" fill="none" stroke-width="152.4"/><path d="M 17830.8 86715.6 17830.8 82296" fill="none" stroke-width="254"/><path d="M 17830.8 86715.6 17790.7 86824.3 M 17830.8 82296 17888.3 82293.2" fill="none" stroke-width="152.4"/><path d="M 17373.6 94030.8 16611.6 94030.8 M 17373.6 94030.8 18592.8 95250 19632.2 95250 20269.2 94613" fill="none" stroke-width="254"/><path d="M 20269.2 94613 20269.2 89306.4" fill="none" stroke-width="203.2"/><path d="M 20269.2 89306.4 17830.8 86868" fill="none" stroke-width="254"/><path d="M 16510 93980 16611.6 94030.8 M 17830.8 86868 17790.7 86824.3" fill="none" stroke-width="152.4"/><path d="M 55124.6 60875.4 55500 60500 55750 60500 55960 60290 55960 59270 M 55168.8 62875 57673.4 62875 58125 63326.6 58125 64875 56375 66625 55875 66625" fill="none" stroke-width="254"/><path d="M 55875 66625 55170 67330 55170 68000" fill="none" stroke-width="200"/><path d="M 55960 59270 56000 59230 56000 58000 58960 55040 58960 51770 M 55168.8 62875 55124.6 62919.2 55124.6 64000 M 55124.6 61750 55124.6 60875.4 M 55124.6 62830.8 55168.8 62875 M 55124.6 62830.8 55124.6 61750" fill="none" stroke-width="254"/><path d="M 58162 60780.2 58162 59472 57960 59270" fill="none" stroke-width="203.2"/><use xlink:href="#sw86CENDCdXyy4gqseMr_pad-27" x="58162" y="60780.2"/><path d="M 60434.8 80872 60431.8 80875 55345 80875 55170 80700" fill="none" stroke-width="203.2"/><path d="M 60350.4 82753.2 60389.6 82750" fill="none" stroke-width="152.4"/><path d="M 58978.8 59131.2 58978.8 58076.4 59463.4 57591.8 61292.2 57591.8 61819.6 58119.2" fill="none" stroke-width="203.2"/><path d="M 58978.8 59131.2 58960 59270" fill="none" stroke-width="152.4"/><use xlink:href="#sw86CENDCdXyy4gqseMr_pad-27" x="52605.4" y="83189.8"/><path d="M 58010 83240 58500 82750 60347.2 82750" fill="none" stroke-width="203.2"/><path d="M 60347.2 82750 60350.4 82753.2" fill="none" stroke-width="152.4"/><path d="M 60389.6 82750 61000 82750 61250 82500 61250 73750 58250 70750 58250 69500 61819.6 65930.4 61819.6 58119.2 M 52605.4 83189.8 52655.6 83240 55170 83240 58010 83240 M 58369.2 90232.8 58369.2 94613" fill="none" stroke-width="203.2"/><path d="M 58369.2 94613 57732.2 95250 51276.7 95250" fill="none" stroke-width="254"/><path d="M 35384.2 92659.2 34290 91565 34290 91440 M 13868.4 91440 13868.4 91979.4" fill="none" stroke-width="203.2"/><path d="M 28041.6 93421.2 28041.6 94458.4 M 28041.6 93421.2 28803.6 92659.2 33070.8 92659.2 34290 91440 M 13970 91440 13868.4 91440" fill="none" stroke-width="152.4"/><path d="M 62020 87349.2 62020 82750 M 62020 87349.2 59994.2 89375 59227 89375 58369.2 90232.8" fill="none" stroke-width="254"/><path d="M 12651.2 93196.6 12651.2 94599.5 M 12651.2 93196.6 13868.4 91979.4" fill="none" stroke-width="203.2"/><path d="M 13807.7 95756 26744 95756 M 13807.7 95756 12651.2 94599.5 M 26744 95756 27750 94750" fill="none" stroke-width="254"/><path d="M 27750 94750 28041.6 94458.4" fill="none" stroke-width="152.4"/><path d="M 50723.8 94697.1 50723.8 93485.5 49897.5 92659.2 35384.2 92659.2" fill="none" stroke-width="203.2"/><path d="M 50723.8 94697.1 51276.7 95250 M 62020 82750 62065.2 80872" fill="none" stroke-width="254"/><path d="M 55894.3 69494.4 54739 69494.4 M 55894.3 69494.4 60018.2 65370.5 60018.2 59328.2" fill="none" stroke-width="203.2"/><path d="M 60018.2 59328.2 59960 59270" fill="none" stroke-width="152.4"/><path d="M 53987 72442.8 54624.2 73080 M 53987 72442.8 53987 70246.4 54739 69494.4 M 54624.2 73080 55170 73080 M 60960 65395 60960 59270 M 60960 65395 55815 70540 55170 70540 M 14000 61480 9770 57250 M 14000 61480 14000 66750 19750 72500 21750 72500 22000 72750 22000 74000 22974.3 74974.3 22974.3 77099.3 28875 83000 30500 83000" fill="none" stroke-width="203.2"/><use xlink:href="#sw86CENDCdXyy4gqseMr_pad-28" x="30500" y="83000"/><use xlink:href="#sw86CENDCdXyy4gqseMr_pad-28" x="35500" y="88375"/><path d="M 35500 88375 34125 89750 30750 89750 30625 89875" fill="none" stroke-width="203.2"/><use xlink:href="#sw86CENDCdXyy4gqseMr_pad-28" x="30625" y="89875"/><path d="M 9296.4 67513.2 9250 67500" fill="none" stroke-width="152.4"/><path d="M 9296.4 67513.2 13890.9 67513.2 M 48250 85000 48250 87750 49125 88625 50343.4 88625 52070 90351.6 52070 91440 M 21894.4 75516.7 13890.9 67513.2 M 21894.4 75516.7 21894.4 77239.3 M 47237.8 83987.8 48250 85000 M 28642.9 83987.8 21894.4 77239.3 M 28642.9 83987.8 47237.8 83987.8 M 58037 54960.1 58037 51847" fill="none" stroke-width="203.2"/><path d="M 58037 51847 57960 51770" fill="none" stroke-width="200"/><path d="M 55829.2 93079.2 56062.5 93312.5 M 55829.2 90935 55125 90230.8 M 55829.2 90935 55829.2 93079.2 M 53686.1 59311.1 58037 54960.1 M 52375 66875 52375 78375 51375 79375 M 52375 66875 53686.1 65564 53686.1 59311.1 M 55125 86728.5 55125 90230.8 M 55125 86728.5 51375 82978.5 51375 79375 M 56062.5 93312.5 56730 93980 57150 93980" fill="none" stroke-width="203.2"/></g></svg>