<svg version="1.1" xmlns="http://www.w3.org/2000/svg" xmlns:xlink="http://www.w3.org/1999/xlink" stroke-linecap="round" stroke-linejoin="round" stroke-width="0" fill-rule="evenodd" width="57.3074mm" height="43.0236mm" viewBox="6569.6 53293.2 57307.4 43023.6" id="ovzPGoUhU1bCgfsPD0sq"><defs><circle cx="0" cy="0" r="939.8" id="ovzPGoUhU1bCgfsPD0sq_pad-10"/><circle cx="0" cy="0" r="660.4" id="ovzPGoUhU1bCgfsPD0sq_pad-11"/><circle cx="0" cy="0" r="679" id="ovzPGoUhU1bCgfsPD0sq_pad-12"/><polygon points="378.19933,156.65529 156.65529,378.19933 -156.65529,378.19933 -378.19933,156.65529 -378.19933,-156.65529 -156.65529,-378.19933 156.65529,-378.19933 378.19933,-156.65529" id="ovzPGoUhU1bCgfsPD0sq_pad-16"/><circle cx="0" cy="0" r="378.2" id="ovzPGoUhU1bCgfsPD0sq_pad-17"/></defs><g transform="translate(0,149610) scale(1,-1)" fill="currentColor" stroke="currentColor"><use xlink:href="#ovzPGoUhU1bCgfsPD0sq_pad-10" x="13970" y="91440"/><use xlink:href="#ovzPGoUhU1bCgfsPD0sq_pad-10" x="16510" y="91440"/><use xlink:href="#ovzPGoUhU1bCgfsPD0sq_pad-10" x="19050" y="91440"/><use xlink:href="#ovzPGoUhU1bCgfsPD0sq_pad-10" x="21590" y="91440"/><use xlink:href="#ovzPGoUhU1bCgfsPD0sq_pad-10" x="24130" y="91440"/><use xlink:href="#ovzPGoUhU1bCgfsPD0sq_pad-10" x="26670" y="91440"/><use xlink:href="#ovzPGoUhU1bCgfsPD0sq_pad-10" x="29210" y="91440"/><use xlink:href="#ovzPGoUhU1bCgfsPD0sq_pad-10" x="31750" y="91440"/><use xlink:href="#ovzPGoUhU1bCgfsPD0sq_pad-10" x="34290" y="91440"/><use xlink:href="#ovzPGoUhU1bCgfsPD0sq_pad-10" x="36830" y="91440"/><use xlink:href="#ovzPGoUhU1bCgfsPD0sq_pad-10" x="39370" y="91440"/><use xlink:href="#ovzPGoUhU1bCgfsPD0sq_pad-10" x="41910" y="91440"/><use xlink:href="#ovzPGoUhU1bCgfsPD0sq_pad-10" x="44450" y="91440"/><use xlink:href="#ovzPGoUhU1bCgfsPD0sq_pad-10" x="44450" y="93980"/><use xlink:href="#ovzPGoUhU1bCgfsPD0sq_pad-10" x="41910" y="93980"/><use xlink:href="#ovzPGoUhU1bCgfsPD0sq_pad-10" x="39370" y="93980"/><use xlink:href="#ovzPGoUhU1bCgfsPD0sq_pad-10" x="36830" y="93980"/><use xlink:href="#ovzPGoUhU1bCgfsPD0sq_pad-10" x="34290" y="93980"/><use xlink:href="#ovzPGoUhU1bCgfsPD0sq_pad-10" x="31750" y="93980"/><use xlink:href="#ovzPGoUhU1bCgfsPD0sq_pad-10" x="29210" y="93980"/><use xlink:href="#ovzPGoUhU1bCgfsPD0sq_pad-10" x="26670" y="93980"/><use xlink:href="#ovzPGoUhU1bCgfsPD0sq_pad-10" x="24130" y="93980"/><use xlink:href="#ovzPGoUhU1bCgfsPD0sq_pad-10" x="21590" y="93980"/><use xlink:href="#ovzPGoUhU1bCgfsPD0sq_pad-10" x="19050" y="93980"/><use xlink:href="#ovzPGoUhU1bCgfsPD0sq_pad-10" x="16510" y="93980"/><use xlink:href="#ovzPGoUhU1bCgfsPD0sq_pad-10" x="13970" y="93980"/><use xlink:href="#ovzPGoUhU1bCgfsPD0sq_pad-10" x="46990" y="91440"/><use xlink:href="#ovzPGoUhU1bCgfsPD0sq_pad-10" x="46990" y="93980"/><use xlink:href="#ovzPGoUhU1bCgfsPD0sq_pad-10" x="49530" y="91440"/><use xlink:href="#ovzPGoUhU1bCgfsPD0sq_pad-10" x="49530" y="93980"/><use xlink:href="#ovzPGoUhU1bCgfsPD0sq_pad-10" x="52070" y="91440"/><use xlink:href="#ovzPGoUhU1bCgfsPD0sq_pad-10" x="52070" y="93980"/><use xlink:href="#ovzPGoUhU1bCgfsPD0sq_pad-10" x="54610" y="91440"/><use xlink:href="#ovzPGoUhU1bCgfsPD0sq_pad-10" x="54610" y="93980"/><use xlink:href="#ovzPGoUhU1bCgfsPD0sq_pad-10" x="57150" y="91440"/><use xlink:href="#ovzPGoUhU1bCgfsPD0sq_pad-10" x="57150" y="93980"/><use xlink:href="#ovzPGoUhU1bCgfsPD0sq_pad-10" x="59690" y="91440"/><use xlink:href="#ovzPGoUhU1bCgfsPD0sq_pad-10" x="59690" y="93980"/><use xlink:href="#ovzPGoUhU1bCgfsPD0sq_pad-10" x="62230" y="91440"/><use xlink:href="#ovzPGoUhU1bCgfsPD0sq_pad-10" x="62230" y="93980"/><use xlink:href="#ovzPGoUhU1bCgfsPD0sq_pad-11" x="9835.2" y="60429.2"/><use xlink:href="#ovzPGoUhU1bCgfsPD0sq_pad-11" x="7295.2" y="60429.2"/><use xlink:href="#ovzPGoUhU1bCgfsPD0sq_pad-11" x="9822.4" y="53953.6"/><use xlink:href="#ovzPGoUhU1bCgfsPD0sq_pad-11" x="7282.4" y="53953.6"/><use xlink:href="#ovzPGoUhU1bCgfsPD0sq_pad-12" x="55170" y="68000"/><use xlink:href="#ovzPGoUhU1bCgfsPD0sq_pad-12" x="55170" y="70540"/><use xlink:href="#ovzPGoUhU1bCgfsPD0sq_pad-12" x="55170" y="73080"/><use xlink:href="#ovzPGoUhU1bCgfsPD0sq_pad-12" x="55170" y="75620"/><use xlink:href="#ovzPGoUhU1bCgfsPD0sq_pad-12" x="55170" y="78160"/><use xlink:href="#ovzPGoUhU1bCgfsPD0sq_pad-12" x="55170" y="80700"/><use xlink:href="#ovzPGoUhU1bCgfsPD0sq_pad-12" x="55170" y="83240"/><use xlink:href="#ovzPGoUhU1bCgfsPD0sq_pad-11" x="9770" y="57250"/><use xlink:href="#ovzPGoUhU1bCgfsPD0sq_pad-11" x="7230" y="57250"/><path d="M 7295.2 60429.2 7315.2 60502.8" fill="none" stroke-width="152.4"/><path d="M 44450 90252.8 44982 89720.8 M 44450 90252.8 44450 91440 M 44982 89720.8 49862.2 89720.8 50749.2 90607.8" fill="none" stroke-width="254"/><path d="M 50749.2 90607.8 50749.2 92659.2 49530 93878.4" fill="none" stroke-width="203.2"/><path d="M 49530 93878.4 49530 93980" fill="none" stroke-width="152.4"/><path d="M 19964.4 93878.4 19050 93878.4 M 19964.4 93878.4 21183.6 92659.2 22860 92659.2 24079.2 91440" fill="none" stroke-width="203.2"/><path d="M 19050 93878.4 19050 93980 M 24079.2 91440 24130 91440 M 28346.4 93878.4 29108.4 93878.4 M 28346.4 93878.4 27127.2 92659.2 25450.8 92659.2 24231.6 91440 M 29108.4 93878.4 29210 93980 M 24231.6 91440 24130 91440" fill="none" stroke-width="152.4"/><use xlink:href="#ovzPGoUhU1bCgfsPD0sq_pad-16" x="9753.6" y="79095.6"/><path d="M 57106.8 80096.8 57106.8 89056.8 M 57106.8 80096.8 55170 78160 M 55786.4 92678.6 60991.4 92678.6 M 55786.4 92678.6 54610 93855 54610 93980 M 55786.4 91987.8 55829.2 91945 M 55786.4 91987.8 55786.4 92678.6 M 55829.2 91945 55829.2 90334.4 57106.8 89056.8 M 60991.4 92678.6 62230 91440 M 9753.6 79095.6 9753.6 77822.2 9762.1 77813.7 M 7315.2 64312.4 7315.2 60502.8 M 9753.6 66751.2 9762.1 66759.7 M 9753.6 66751.2 9753.6 66750.8 M 9762.1 66759.7 9762.1 77813.7 M 9753.6 66750.8 7315.2 64312.4" fill="none" stroke-width="254"/><path d="M 50749.2 92659.2 53250 92625 54610 93980 M 21000 73500 19000 73500" fill="none" stroke-width="203.2"/><use xlink:href="#ovzPGoUhU1bCgfsPD0sq_pad-16" x="21000" y="73500"/><use xlink:href="#ovzPGoUhU1bCgfsPD0sq_pad-16" x="58000" y="87750"/><path d="M 58000 87750 59000 87750 60750 89500 60750 90380 59690 91440" fill="none" stroke-width="203.2"/><use xlink:href="#ovzPGoUhU1bCgfsPD0sq_pad-16" x="56209" y="87740.2"/><path d="M 56209 87740.2 56199.2 87750" fill="none" stroke-width="152.4"/><use xlink:href="#ovzPGoUhU1bCgfsPD0sq_pad-16" x="53875" y="87750"/><path d="M 53875 87750 56199.2 87750" fill="none" stroke-width="203.2"/><use xlink:href="#ovzPGoUhU1bCgfsPD0sq_pad-16" x="18991.8" y="73508.2"/><path d="M 18991.8 73508.2 19000 73500 M 33070.8 92659.2 34290 93878.4 34290 93980" fill="none" stroke-width="152.4"/><path d="M 33070.8 88634.4 10414 65977.6 10414 61008" fill="none" stroke-width="203.2"/><path d="M 33070.8 88634.4 33070.8 92659.2" fill="none" stroke-width="152.4"/><path d="M 10414 61008 9835.2 60429.2 M 9906 56083.2 9906 54102 M 9906 56083.2 22860 69037.2 M 37463 90095.8 38100 90732.8 38100 92659.2 39319.2 93878.4 M 9906 54102 9822.4 53953.6" fill="none" stroke-width="203.2"/><path d="M 39319.2 93878.4 39370 93980" fill="none" stroke-width="152.4"/><path d="M 37463 90095.8 36326.7 90095.8 22860 76629.1 22860 69037.2" fill="none" stroke-width="203.2"/><use xlink:href="#ovzPGoUhU1bCgfsPD0sq_pad-17" x="12625" y="85500"/><path d="M 12625 85500 15875 88750 17625 88750 19050 90175 19050 91440" fill="none" stroke-width="203.2"/><path d="M 16611.6 94030.8 16510 93980" fill="none" stroke-width="152.4"/><path d="M 55170 68000 57500 70330 57500 79125 58750 80375 58750 85500 61750 88500 62625 88500 63750 89625 63750 94948 62533.6 96164.4" fill="none" stroke-width="254"/><path d="M 44510.6 96164.4 44485.2 96189.8" fill="none" stroke-width="152.4"/><path d="M 44510.6 96164.4 62533.6 96164.4 M 18770.6 96189.8 16611.6 94030.8 M 18770.6 96189.8 44485.2 96189.8" fill="none" stroke-width="254"/><path d="M 58162 62230.6 58162 60780.2" fill="none" stroke-width="203.2"/><path d="M 24536.4 94030.8 24231.6 94030.8 M 43281.6 94335.6 43281.6 90678 M 24231.6 94030.8 24130 93980" fill="none" stroke-width="152.4"/><use xlink:href="#ovzPGoUhU1bCgfsPD0sq_pad-16" x="58162" y="60780.2"/><path d="M 55170 80700 54050 80700 M 43281.6 90218.4 43281.6 90678 M 53629.4 80279.4 54050 80700 M 53629.4 80279.4 53629.4 66763.2 58162 62230.6 M 53612.6 83451.7 52742.3 84322 M 53612.6 81137.4 54050 80700 M 49178 84322 43281.6 90218.4 M 53612.6 83451.7 53612.6 81137.4 M 52742.3 84322 49178 84322" fill="none" stroke-width="203.2"/><path d="M 43281.6 94335.6 42138.6 95478.6 25984.2 95478.6 24536.4 94030.8 M 22555.2 93878.4 21640.8 93878.4 M 22555.2 93878.4 23622 92811.6 24688.8 92811.6 25450.8 93573.6 M 21640.8 93878.4 21590 93980" fill="none" stroke-width="152.4"/><use xlink:href="#ovzPGoUhU1bCgfsPD0sq_pad-16" x="52605.4" y="83189.8"/><path d="M 40690.8 90470.9 40690.8 90982.8 M 40690.8 90470.9 47971.9 83189.8 52605.4 83189.8" fill="none" stroke-width="203.2"/><path d="M 25450.8 93573.6 25450.8 94413.2 26186 95148.4 39854 95148.4 40690.8 94311.6 40690.8 90982.8" fill="none" stroke-width="152.4"/><use xlink:href="#ovzPGoUhU1bCgfsPD0sq_pad-17" x="30500" y="83000"/><path d="M 30625 83000 35500 87875 M 30625 83000 30500 83000 M 35500 87875 35500 88375" fill="none" stroke-width="203.2"/><use xlink:href="#ovzPGoUhU1bCgfsPD0sq_pad-17" x="35500" y="88375"/><use xlink:href="#ovzPGoUhU1bCgfsPD0sq_pad-17" x="30625" y="89875"/><path d="M 30556.2 89943.8 30556.2 92786.2 M 30556.2 89943.8 30625 89875 M 30556.2 92786.2 31750 93980" fill="none" stroke-width="203.2"/></g></svg>