<svg version="1.1" xmlns="http://www.w3.org/2000/svg" xmlns:xlink="http://www.w3.org/1999/xlink" stroke-linecap="round" stroke-linejoin="round" stroke-width="0" fill-rule="evenodd" width="64.9525mm" height="57.5002mm" viewBox="5580 39999.8 64952.5 57500.2" id="wdInmFa1Dl1433dz4ipI"><g transform="translate(0,137499.8) scale(1,-1)" fill="currentColor" stroke="currentColor"><path d="M 5580 43430 5587.8 43136.3 5621.2 42844.4 5679.9 42556.5 5763.4 42274.8 5871.2 42001.4 6002.4 41738.5 6156 41488.1 6330.9 41252 6525.7 41032 6738.9 40829.8 6968.9 40647 7214 40484.9 7472.2 40344.8 7741.7 40227.8 8020.4 40134.6 8306.1 40066.1 8596.7 40022.8 8890 40005 22860 40005 24130 41592.5 24130 74930 24139.7 75151.4 24168.6 75371.1 24216.5 75587.4 24283.2 75798.7 24368 76003.5 24470.3 76200 24589.4 76386.9 24724.2 76562.7 24874 76726.1 25037.3 76875.8 25213.1 77010.6 25400 77129.7 25596.6 77232 25801.3 77316.8 26012.6 77383.5 26228.9 77431.4 26448.6 77460.3 26670 77470 46990 77470 47211.4 77460.3 47431.1 77431.4 47647.4 77383.5 47858.7 77316.8 48063.5 77232 48260 77129.7 48446.9 77010.6 48622.7 76875.8 48786.1 76726.1 48935.8 76562.7 49070.6 76386.9 49189.7 76200 49292 76003.5 49376.8 75798.7 49443.5 75587.4 49491.4 75371.1 49520.3 75151.4 49530 74930 49530 41592.5 50800 40005 67290 40005 67556.6 39999.8 67822.6 40017.9 68086 40059.1 68344.8 40123.1 68597 40209.4 68840.8 40317.4 69074.2 40446.2 69295.5 40594.8 69503.1 40762.2 69695.2 40947 69870.5 41147.9 70027.6 41363.3 70165.4 41591.6 70282.7 41830.9 70378.8 42079.7 70452.7 42335.8 70504.1 42597.4 70532.5 42862.5 70532.5 94717.5 70521.9 94960 70490.2 95200.7 70437.7 95437.7 70364.7 95669.2 70271.8 95893.4 70159.7 96108.8 70029.3 96313.5 69881.5 96506.1 69717.5 96685 69538.6 96849 69346 96996.8 69141.3 97127.2 68925.9 97239.3 68701.7 97332.2 68470.2 97405.2 68233.2 97457.7 67992.5 97489.4 67750 97500 9066.3 97500 8762.5 97486.7 8460.9 97447 8164 97381.2 7873.9 97289.8 7592.9 97173.4 7323.2 97032.9 7066.7 96869.5 6825.4 96684.4 6601.1 96478.9 6395.6 96254.6 6210.5 96013.4 6047.1 95756.8 5906.6 95487.1 5790.3 95206.1 5698.8 94916 5633 94619.1 5593.3 94317.5 5580 94013.7 5580 43430" fill="none" stroke-width="254"/></g></svg>