<svg version="1.1" xmlns="http://www.w3.org/2000/svg" xmlns:xlink="http://www.w3.org/1999/xlink" stroke-linecap="round" stroke-linejoin="round" stroke-width="0" fill-rule="evenodd" width="63.8125mm" height="53.313900000000004mm" viewBox="6017.5 41707.5 63812.5 53313.9" id="zpwe9JwAkKvxntxlXDNB"><defs><circle cx="0" cy="0" r="1351.6" id="zpwe9JwAkKvxntxlXDNB_pad-10"/><circle cx="0" cy="0" r="451.6" id="zpwe9JwAkKvxntxlXDNB_pad-11"/><circle cx="0" cy="0" r="1041.4" id="zpwe9JwAkKvxntxlXDNB_pad-12"/><circle cx="0" cy="0" r="1476.6" id="zpwe9JwAkKvxntxlXDNB_pad-13"/><circle cx="0" cy="0" r="762" id="zpwe9JwAkKvxntxlXDNB_pad-14"/><circle cx="0" cy="0" r="780.6" id="zpwe9JwAkKvxntxlXDNB_pad-15"/><circle cx="0" cy="0" r="551.6" id="zpwe9JwAkKvxntxlXDNB_pad-16"/></defs><g transform="translate(0,136728.9) scale(1,-1)" fill="currentColor" stroke="currentColor"><use xlink:href="#zpwe9JwAkKvxntxlXDNB_pad-10" x="68478.4" y="86250"/><use xlink:href="#zpwe9JwAkKvxntxlXDNB_pad-10" x="54000" y="43059.1"/><use xlink:href="#zpwe9JwAkKvxntxlXDNB_pad-11" x="8269.1" y="77195.3"/><use xlink:href="#zpwe9JwAkKvxntxlXDNB_pad-11" x="6469.1" y="77195.3"/><use xlink:href="#zpwe9JwAkKvxntxlXDNB_pad-11" x="8269.1" y="84308.5"/><use xlink:href="#zpwe9JwAkKvxntxlXDNB_pad-11" x="6469.1" y="84308.5"/><use xlink:href="#zpwe9JwAkKvxntxlXDNB_pad-12" x="13970" y="91440"/><use xlink:href="#zpwe9JwAkKvxntxlXDNB_pad-12" x="16510" y="91440"/><use xlink:href="#zpwe9JwAkKvxntxlXDNB_pad-12" x="19050" y="91440"/><use xlink:href="#zpwe9JwAkKvxntxlXDNB_pad-12" x="21590" y="91440"/><use xlink:href="#zpwe9JwAkKvxntxlXDNB_pad-12" x="24130" y="91440"/><use xlink:href="#zpwe9JwAkKvxntxlXDNB_pad-12" x="26670" y="91440"/><use xlink:href="#zpwe9JwAkKvxntxlXDNB_pad-12" x="29210" y="91440"/><use xlink:href="#zpwe9JwAkKvxntxlXDNB_pad-12" x="31750" y="91440"/><use xlink:href="#zpwe9JwAkKvxntxlXDNB_pad-12" x="34290" y="91440"/><use xlink:href="#zpwe9JwAkKvxntxlXDNB_pad-12" x="36830" y="91440"/><use xlink:href="#zpwe9JwAkKvxntxlXDNB_pad-12" x="39370" y="91440"/><use xlink:href="#zpwe9JwAkKvxntxlXDNB_pad-12" x="41910" y="91440"/><use xlink:href="#zpwe9JwAkKvxntxlXDNB_pad-12" x="44450" y="91440"/><use xlink:href="#zpwe9JwAkKvxntxlXDNB_pad-12" x="44450" y="93980"/><use xlink:href="#zpwe9JwAkKvxntxlXDNB_pad-12" x="41910" y="93980"/><use xlink:href="#zpwe9JwAkKvxntxlXDNB_pad-12" x="39370" y="93980"/><use xlink:href="#zpwe9JwAkKvxntxlXDNB_pad-12" x="36830" y="93980"/><use xlink:href="#zpwe9JwAkKvxntxlXDNB_pad-12" x="34290" y="93980"/><use xlink:href="#zpwe9JwAkKvxntxlXDNB_pad-12" x="31750" y="93980"/><use xlink:href="#zpwe9JwAkKvxntxlXDNB_pad-12" x="29210" y="93980"/><use xlink:href="#zpwe9JwAkKvxntxlXDNB_pad-12" x="26670" y="93980"/><use xlink:href="#zpwe9JwAkKvxntxlXDNB_pad-12" x="24130" y="93980"/><use xlink:href="#zpwe9JwAkKvxntxlXDNB_pad-12" x="21590" y="93980"/><use xlink:href="#zpwe9JwAkKvxntxlXDNB_pad-12" x="19050" y="93980"/><use xlink:href="#zpwe9JwAkKvxntxlXDNB_pad-12" x="16510" y="93980"/><use xlink:href="#zpwe9JwAkKvxntxlXDNB_pad-12" x="13970" y="93980"/><use xlink:href="#zpwe9JwAkKvxntxlXDNB_pad-12" x="46990" y="91440"/><use xlink:href="#zpwe9JwAkKvxntxlXDNB_pad-12" x="46990" y="93980"/><use xlink:href="#zpwe9JwAkKvxntxlXDNB_pad-12" x="49530" y="91440"/><use xlink:href="#zpwe9JwAkKvxntxlXDNB_pad-12" x="49530" y="93980"/><use xlink:href="#zpwe9JwAkKvxntxlXDNB_pad-12" x="52070" y="91440"/><use xlink:href="#zpwe9JwAkKvxntxlXDNB_pad-12" x="52070" y="93980"/><use xlink:href="#zpwe9JwAkKvxntxlXDNB_pad-12" x="54610" y="91440"/><use xlink:href="#zpwe9JwAkKvxntxlXDNB_pad-12" x="54610" y="93980"/><use xlink:href="#zpwe9JwAkKvxntxlXDNB_pad-12" x="57150" y="91440"/><use xlink:href="#zpwe9JwAkKvxntxlXDNB_pad-12" x="57150" y="93980"/><use xlink:href="#zpwe9JwAkKvxntxlXDNB_pad-12" x="59690" y="91440"/><use xlink:href="#zpwe9JwAkKvxntxlXDNB_pad-12" x="59690" y="93980"/><use xlink:href="#zpwe9JwAkKvxntxlXDNB_pad-12" x="62230" y="91440"/><use xlink:href="#zpwe9JwAkKvxntxlXDNB_pad-12" x="62230" y="93980"/><use xlink:href="#zpwe9JwAkKvxntxlXDNB_pad-13" x="9100" y="43713.4"/><use xlink:href="#zpwe9JwAkKvxntxlXDNB_pad-13" x="67100" y="43713.4"/><use xlink:href="#zpwe9JwAkKvxntxlXDNB_pad-13" x="67100" y="92713.4"/><use xlink:href="#zpwe9JwAkKvxntxlXDNB_pad-13" x="9100" y="92713.4"/><use xlink:href="#zpwe9JwAkKvxntxlXDNB_pad-14" x="9835.2" y="60429.2"/><use xlink:href="#zpwe9JwAkKvxntxlXDNB_pad-14" x="7295.2" y="60429.2"/><use xlink:href="#zpwe9JwAkKvxntxlXDNB_pad-14" x="9822.4" y="53953.6"/><use xlink:href="#zpwe9JwAkKvxntxlXDNB_pad-14" x="7282.4" y="53953.6"/><use xlink:href="#zpwe9JwAkKvxntxlXDNB_pad-15" x="55170" y="68000"/><use xlink:href="#zpwe9JwAkKvxntxlXDNB_pad-15" x="55170" y="70540"/><use xlink:href="#zpwe9JwAkKvxntxlXDNB_pad-15" x="55170" y="73080"/><use xlink:href="#zpwe9JwAkKvxntxlXDNB_pad-15" x="55170" y="75620"/><use xlink:href="#zpwe9JwAkKvxntxlXDNB_pad-15" x="55170" y="78160"/><use xlink:href="#zpwe9JwAkKvxntxlXDNB_pad-15" x="55170" y="80700"/><use xlink:href="#zpwe9JwAkKvxntxlXDNB_pad-15" x="55170" y="83240"/><use xlink:href="#zpwe9JwAkKvxntxlXDNB_pad-14" x="9770" y="57250"/><use xlink:href="#zpwe9JwAkKvxntxlXDNB_pad-14" x="7230" y="57250"/><use xlink:href="#zpwe9JwAkKvxntxlXDNB_pad-16" x="7500" y="69750"/><use xlink:href="#zpwe9JwAkKvxntxlXDNB_pad-16" x="7500" y="66750"/></g></svg>