<svg version="1.1" xmlns="http://www.w3.org/2000/svg" xmlns:xlink="http://www.w3.org/1999/xlink" stroke-linecap="round" stroke-linejoin="round" stroke-width="0" fill-rule="evenodd" width="56.7259mm" height="40.41195mm" viewBox="6134.1 47145 56725.9 40411.95" id="H4Pv1xeyUP6zfp8_eIiV"><defs><rect x="-582.3" y="-732.65" width="1164.6" height="1465.3" id="H4Pv1xeyUP6zfp8_eIiV_pad-10"/><rect x="-500" y="-2300" width="1000" height="4600" id="H4Pv1xeyUP6zfp8_eIiV_pad-11"/><rect x="-800" y="-1700" width="1600" height="3400" id="H4Pv1xeyUP6zfp8_eIiV_pad-12"/><rect x="-525" y="-700" width="1050" height="1400" id="H4Pv1xeyUP6zfp8_eIiV_pad-13"/><rect x="-1000" y="-1000" width="2000" height="2000" id="H4Pv1xeyUP6zfp8_eIiV_pad-14"/><rect x="-399.35" y="-486.95" width="798.7" height="973.9" id="H4Pv1xeyUP6zfp8_eIiV_pad-15"/><rect x="-300" y="-775" width="600" height="1550" id="H4Pv1xeyUP6zfp8_eIiV_pad-16"/><rect x="-600" y="-900" width="1200" height="1800" id="H4Pv1xeyUP6zfp8_eIiV_pad-17"/><rect x="-750" y="-350" width="1500" height="700" id="H4Pv1xeyUP6zfp8_eIiV_pad-18"/><rect x="-300" y="-500" width="600" height="1000" id="H4Pv1xeyUP6zfp8_eIiV_pad-19"/><rect x="-400" y="-500" width="800" height="1000" id="H4Pv1xeyUP6zfp8_eIiV_pad-20"/></defs><g transform="translate(0,134701.95) scale(1,-1)" fill="currentColor" stroke="currentColor"><use xlink:href="#H4Pv1xeyUP6zfp8_eIiV_pad-10" x="17790.7" y="86824.3"/><use xlink:href="#H4Pv1xeyUP6zfp8_eIiV_pad-10" x="16039.9" y="86824.3"/><use xlink:href="#H4Pv1xeyUP6zfp8_eIiV_pad-11" x="15888.3" y="82293.2"/><use xlink:href="#H4Pv1xeyUP6zfp8_eIiV_pad-11" x="17888.3" y="82293.2"/><use xlink:href="#H4Pv1xeyUP6zfp8_eIiV_pad-12" x="20288.3" y="77093.2"/><use xlink:href="#H4Pv1xeyUP6zfp8_eIiV_pad-12" x="13488.3" y="77093.2"/><use xlink:href="#H4Pv1xeyUP6zfp8_eIiV_pad-13" x="8169.1" y="78995.3"/><use xlink:href="#H4Pv1xeyUP6zfp8_eIiV_pad-13" x="6659.1" y="78995.3"/><use xlink:href="#H4Pv1xeyUP6zfp8_eIiV_pad-13" x="8169.1" y="75395.3"/><use xlink:href="#H4Pv1xeyUP6zfp8_eIiV_pad-13" x="6659.1" y="75395.3"/><use xlink:href="#H4Pv1xeyUP6zfp8_eIiV_pad-13" x="8169.1" y="86108.5"/><use xlink:href="#H4Pv1xeyUP6zfp8_eIiV_pad-13" x="6659.1" y="86108.5"/><use xlink:href="#H4Pv1xeyUP6zfp8_eIiV_pad-13" x="8169.1" y="82508.5"/><use xlink:href="#H4Pv1xeyUP6zfp8_eIiV_pad-13" x="6659.1" y="82508.5"/><use xlink:href="#H4Pv1xeyUP6zfp8_eIiV_pad-14" x="28985.2" y="86203.6"/><use xlink:href="#H4Pv1xeyUP6zfp8_eIiV_pad-14" x="22985.2" y="86203.6"/><use xlink:href="#H4Pv1xeyUP6zfp8_eIiV_pad-14" x="51158.4" y="86203.6"/><use xlink:href="#H4Pv1xeyUP6zfp8_eIiV_pad-14" x="45158.4" y="86203.6"/><use xlink:href="#H4Pv1xeyUP6zfp8_eIiV_pad-14" x="40185.6" y="86203.6"/><use xlink:href="#H4Pv1xeyUP6zfp8_eIiV_pad-14" x="34185.6" y="86203.6"/><use xlink:href="#H4Pv1xeyUP6zfp8_eIiV_pad-10" x="55124.6" y="64000"/><use xlink:href="#H4Pv1xeyUP6zfp8_eIiV_pad-10" x="56875.4" y="64000"/><use xlink:href="#H4Pv1xeyUP6zfp8_eIiV_pad-10" x="55124.6" y="61750"/><use xlink:href="#H4Pv1xeyUP6zfp8_eIiV_pad-10" x="56875.4" y="61750"/><use xlink:href="#H4Pv1xeyUP6zfp8_eIiV_pad-15" x="60389.6" y="82750"/><use xlink:href="#H4Pv1xeyUP6zfp8_eIiV_pad-15" x="62020" y="82750"/><use xlink:href="#H4Pv1xeyUP6zfp8_eIiV_pad-15" x="60434.8" y="80872"/><use xlink:href="#H4Pv1xeyUP6zfp8_eIiV_pad-15" x="62065.2" y="80872"/><use xlink:href="#H4Pv1xeyUP6zfp8_eIiV_pad-16" x="55960" y="59270"/><use xlink:href="#H4Pv1xeyUP6zfp8_eIiV_pad-16" x="56960" y="59270"/><use xlink:href="#H4Pv1xeyUP6zfp8_eIiV_pad-16" x="57960" y="59270"/><use xlink:href="#H4Pv1xeyUP6zfp8_eIiV_pad-16" x="58960" y="59270"/><use xlink:href="#H4Pv1xeyUP6zfp8_eIiV_pad-16" x="59960" y="59270"/><use xlink:href="#H4Pv1xeyUP6zfp8_eIiV_pad-16" x="60960" y="59270"/><use xlink:href="#H4Pv1xeyUP6zfp8_eIiV_pad-17" x="54660" y="55545"/><use xlink:href="#H4Pv1xeyUP6zfp8_eIiV_pad-17" x="62260" y="55545"/><use xlink:href="#H4Pv1xeyUP6zfp8_eIiV_pad-18" x="9250" y="66000"/><use xlink:href="#H4Pv1xeyUP6zfp8_eIiV_pad-18" x="9250" y="67500"/><use xlink:href="#H4Pv1xeyUP6zfp8_eIiV_pad-18" x="9250" y="70500"/><use xlink:href="#H4Pv1xeyUP6zfp8_eIiV_pad-19" x="6500" y="64600"/><use xlink:href="#H4Pv1xeyUP6zfp8_eIiV_pad-20" x="8600" y="64600"/><use xlink:href="#H4Pv1xeyUP6zfp8_eIiV_pad-19" x="6500" y="71900"/><use xlink:href="#H4Pv1xeyUP6zfp8_eIiV_pad-20" x="8600" y="71900"/><use xlink:href="#H4Pv1xeyUP6zfp8_eIiV_pad-16" x="55960" y="51770"/><use xlink:href="#H4Pv1xeyUP6zfp8_eIiV_pad-16" x="56960" y="51770"/><use xlink:href="#H4Pv1xeyUP6zfp8_eIiV_pad-16" x="57960" y="51770"/><use xlink:href="#H4Pv1xeyUP6zfp8_eIiV_pad-16" x="58960" y="51770"/><use xlink:href="#H4Pv1xeyUP6zfp8_eIiV_pad-16" x="59960" y="51770"/><use xlink:href="#H4Pv1xeyUP6zfp8_eIiV_pad-16" x="60960" y="51770"/><use xlink:href="#H4Pv1xeyUP6zfp8_eIiV_pad-17" x="54660" y="48045"/><use xlink:href="#H4Pv1xeyUP6zfp8_eIiV_pad-17" x="62260" y="48045"/></g></svg>