<svg version="1.1" xmlns="http://www.w3.org/2000/svg" xmlns:xlink="http://www.w3.org/1999/xlink" stroke-linecap="round" stroke-linejoin="round" stroke-width="0" fill-rule="evenodd" width="63.8125mm" height="53.313900000000004mm" viewBox="6017.5 41707.5 63812.5 53313.9" id="KsOsEG4kmYaDHMEeXxQt"><defs><circle cx="0" cy="0" r="1351.6" id="KsOsEG4kmYaDHMEeXxQt_pad-10"/><rect x="-683.9" y="-834.25" width="1367.8" height="1668.5" id="KsOsEG4kmYaDHMEeXxQt_pad-11"/><rect x="-601.6" y="-2401.6" width="1203.2" height="4803.2" id="KsOsEG4kmYaDHMEeXxQt_pad-12"/><rect x="-901.6" y="-1801.6" width="1803.2" height="3603.2" id="KsOsEG4kmYaDHMEeXxQt_pad-13"/><rect x="-626.6" y="-801.6" width="1253.2" height="1603.2" id="KsOsEG4kmYaDHMEeXxQt_pad-14"/><circle cx="0" cy="0" r="451.6" id="KsOsEG4kmYaDHMEeXxQt_pad-15"/><circle cx="0" cy="0" r="1041.4" id="KsOsEG4kmYaDHMEeXxQt_pad-16"/><circle cx="0" cy="0" r="1476.6" id="KsOsEG4kmYaDHMEeXxQt_pad-17"/><rect x="-1101.6" y="-1101.6" width="2203.2" height="2203.2" id="KsOsEG4kmYaDHMEeXxQt_pad-18"/><circle cx="0" cy="0" r="762" id="KsOsEG4kmYaDHMEeXxQt_pad-19"/><circle cx="0" cy="0" r="780.6" id="KsOsEG4kmYaDHMEeXxQt_pad-20"/><rect x="-500.95" y="-588.55" width="1001.9" height="1177.1" id="KsOsEG4kmYaDHMEeXxQt_pad-21"/><rect x="-401.6" y="-876.6" width="803.2" height="1753.2" id="KsOsEG4kmYaDHMEeXxQt_pad-22"/><rect x="-701.6" y="-1001.6" width="1403.2" height="2003.2" id="KsOsEG4kmYaDHMEeXxQt_pad-23"/><rect x="-851.6" y="-451.6" width="1703.2" height="903.2" id="KsOsEG4kmYaDHMEeXxQt_pad-24"/><rect x="-401.6" y="-601.6" width="803.2" height="1203.2" id="KsOsEG4kmYaDHMEeXxQt_pad-25"/><rect x="-501.6" y="-601.6" width="1003.2" height="1203.2" id="KsOsEG4kmYaDHMEeXxQt_pad-26"/><circle cx="0" cy="0" r="551.6" id="KsOsEG4kmYaDHMEeXxQt_pad-27"/></defs><g transform="translate(0,136728.9) scale(1,-1)" fill="currentColor" stroke="currentColor"><use xlink:href="#KsOsEG4kmYaDHMEeXxQt_pad-10" x="68478.4" y="86250"/><use xlink:href="#KsOsEG4kmYaDHMEeXxQt_pad-10" x="54000" y="43059.1"/><use xlink:href="#KsOsEG4kmYaDHMEeXxQt_pad-11" x="17790.7" y="86824.3"/><use xlink:href="#KsOsEG4kmYaDHMEeXxQt_pad-11" x="16039.9" y="86824.3"/><use xlink:href="#KsOsEG4kmYaDHMEeXxQt_pad-12" x="15888.3" y="82293.2"/><use xlink:href="#KsOsEG4kmYaDHMEeXxQt_pad-12" x="17888.3" y="82293.2"/><use xlink:href="#KsOsEG4kmYaDHMEeXxQt_pad-13" x="20288.3" y="77093.2"/><use xlink:href="#KsOsEG4kmYaDHMEeXxQt_pad-13" x="13488.3" y="77093.2"/><use xlink:href="#KsOsEG4kmYaDHMEeXxQt_pad-14" x="8169.1" y="78995.3"/><use xlink:href="#KsOsEG4kmYaDHMEeXxQt_pad-14" x="6659.1" y="78995.3"/><use xlink:href="#KsOsEG4kmYaDHMEeXxQt_pad-14" x="8169.1" y="75395.3"/><use xlink:href="#KsOsEG4kmYaDHMEeXxQt_pad-14" x="6659.1" y="75395.3"/><use xlink:href="#KsOsEG4kmYaDHMEeXxQt_pad-15" x="8269.1" y="77195.3"/><use xlink:href="#KsOsEG4kmYaDHMEeXxQt_pad-15" x="6469.1" y="77195.3"/><use xlink:href="#KsOsEG4kmYaDHMEeXxQt_pad-14" x="8169.1" y="86108.5"/><use xlink:href="#KsOsEG4kmYaDHMEeXxQt_pad-14" x="6659.1" y="86108.5"/><use xlink:href="#KsOsEG4kmYaDHMEeXxQt_pad-14" x="8169.1" y="82508.5"/><use xlink:href="#KsOsEG4kmYaDHMEeXxQt_pad-14" x="6659.1" y="82508.5"/><use xlink:href="#KsOsEG4kmYaDHMEeXxQt_pad-15" x="8269.1" y="84308.5"/><use xlink:href="#KsOsEG4kmYaDHMEeXxQt_pad-15" x="6469.1" y="84308.5"/><use xlink:href="#KsOsEG4kmYaDHMEeXxQt_pad-16" x="13970" y="91440"/><use xlink:href="#KsOsEG4kmYaDHMEeXxQt_pad-16" x="16510" y="91440"/><use xlink:href="#KsOsEG4kmYaDHMEeXxQt_pad-16" x="19050" y="91440"/><use xlink:href="#KsOsEG4kmYaDHMEeXxQt_pad-16" x="21590" y="91440"/><use xlink:href="#KsOsEG4kmYaDHMEeXxQt_pad-16" x="24130" y="91440"/><use xlink:href="#KsOsEG4kmYaDHMEeXxQt_pad-16" x="26670" y="91440"/><use xlink:href="#KsOsEG4kmYaDHMEeXxQt_pad-16" x="29210" y="91440"/><use xlink:href="#KsOsEG4kmYaDHMEeXxQt_pad-16" x="31750" y="91440"/><use xlink:href="#KsOsEG4kmYaDHMEeXxQt_pad-16" x="34290" y="91440"/><use xlink:href="#KsOsEG4kmYaDHMEeXxQt_pad-16" x="36830" y="91440"/><use xlink:href="#KsOsEG4kmYaDHMEeXxQt_pad-16" x="39370" y="91440"/><use xlink:href="#KsOsEG4kmYaDHMEeXxQt_pad-16" x="41910" y="91440"/><use xlink:href="#KsOsEG4kmYaDHMEeXxQt_pad-16" x="44450" y="91440"/><use xlink:href="#KsOsEG4kmYaDHMEeXxQt_pad-16" x="44450" y="93980"/><use xlink:href="#KsOsEG4kmYaDHMEeXxQt_pad-16" x="41910" y="93980"/><use xlink:href="#KsOsEG4kmYaDHMEeXxQt_pad-16" x="39370" y="93980"/><use xlink:href="#KsOsEG4kmYaDHMEeXxQt_pad-16" x="36830" y="93980"/><use xlink:href="#KsOsEG4kmYaDHMEeXxQt_pad-16" x="34290" y="93980"/><use xlink:href="#KsOsEG4kmYaDHMEeXxQt_pad-16" x="31750" y="93980"/><use xlink:href="#KsOsEG4kmYaDHMEeXxQt_pad-16" x="29210" y="93980"/><use xlink:href="#KsOsEG4kmYaDHMEeXxQt_pad-16" x="26670" y="93980"/><use xlink:href="#KsOsEG4kmYaDHMEeXxQt_pad-16" x="24130" y="93980"/><use xlink:href="#KsOsEG4kmYaDHMEeXxQt_pad-16" x="21590" y="93980"/><use xlink:href="#KsOsEG4kmYaDHMEeXxQt_pad-16" x="19050" y="93980"/><use xlink:href="#KsOsEG4kmYaDHMEeXxQt_pad-16" x="16510" y="93980"/><use xlink:href="#KsOsEG4kmYaDHMEeXxQt_pad-16" x="13970" y="93980"/><use xlink:href="#KsOsEG4kmYaDHMEeXxQt_pad-16" x="46990" y="91440"/><use xlink:href="#KsOsEG4kmYaDHMEeXxQt_pad-16" x="46990" y="93980"/><use xlink:href="#KsOsEG4kmYaDHMEeXxQt_pad-16" x="49530" y="91440"/><use xlink:href="#KsOsEG4kmYaDHMEeXxQt_pad-16" x="49530" y="93980"/><use xlink:href="#KsOsEG4kmYaDHMEeXxQt_pad-16" x="52070" y="91440"/><use xlink:href="#KsOsEG4kmYaDHMEeXxQt_pad-16" x="52070" y="93980"/><use xlink:href="#KsOsEG4kmYaDHMEeXxQt_pad-16" x="54610" y="91440"/><use xlink:href="#KsOsEG4kmYaDHMEeXxQt_pad-16" x="54610" y="93980"/><use xlink:href="#KsOsEG4kmYaDHMEeXxQt_pad-16" x="57150" y="91440"/><use xlink:href="#KsOsEG4kmYaDHMEeXxQt_pad-16" x="57150" y="93980"/><use xlink:href="#KsOsEG4kmYaDHMEeXxQt_pad-16" x="59690" y="91440"/><use xlink:href="#KsOsEG4kmYaDHMEeXxQt_pad-16" x="59690" y="93980"/><use xlink:href="#KsOsEG4kmYaDHMEeXxQt_pad-16" x="62230" y="91440"/><use xlink:href="#KsOsEG4kmYaDHMEeXxQt_pad-16" x="62230" y="93980"/><use xlink:href="#KsOsEG4kmYaDHMEeXxQt_pad-17" x="9100" y="43713.4"/><use xlink:href="#KsOsEG4kmYaDHMEeXxQt_pad-17" x="67100" y="43713.4"/><use xlink:href="#KsOsEG4kmYaDHMEeXxQt_pad-17" x="67100" y="92713.4"/><use xlink:href="#KsOsEG4kmYaDHMEeXxQt_pad-17" x="9100" y="92713.4"/><use xlink:href="#KsOsEG4kmYaDHMEeXxQt_pad-18" x="28985.2" y="86203.6"/><use xlink:href="#KsOsEG4kmYaDHMEeXxQt_pad-18" x="22985.2" y="86203.6"/><use xlink:href="#KsOsEG4kmYaDHMEeXxQt_pad-18" x="51158.4" y="86203.6"/><use xlink:href="#KsOsEG4kmYaDHMEeXxQt_pad-18" x="45158.4" y="86203.6"/><use xlink:href="#KsOsEG4kmYaDHMEeXxQt_pad-18" x="40185.6" y="86203.6"/><use xlink:href="#KsOsEG4kmYaDHMEeXxQt_pad-18" x="34185.6" y="86203.6"/><use xlink:href="#KsOsEG4kmYaDHMEeXxQt_pad-19" x="9835.2" y="60429.2"/><use xlink:href="#KsOsEG4kmYaDHMEeXxQt_pad-19" x="7295.2" y="60429.2"/><use xlink:href="#KsOsEG4kmYaDHMEeXxQt_pad-19" x="9822.4" y="53953.6"/><use xlink:href="#KsOsEG4kmYaDHMEeXxQt_pad-19" x="7282.4" y="53953.6"/><use xlink:href="#KsOsEG4kmYaDHMEeXxQt_pad-20" x="55170" y="68000"/><use xlink:href="#KsOsEG4kmYaDHMEeXxQt_pad-20" x="55170" y="70540"/><use xlink:href="#KsOsEG4kmYaDHMEeXxQt_pad-20" x="55170" y="73080"/><use xlink:href="#KsOsEG4kmYaDHMEeXxQt_pad-20" x="55170" y="75620"/><use xlink:href="#KsOsEG4kmYaDHMEeXxQt_pad-20" x="55170" y="78160"/><use xlink:href="#KsOsEG4kmYaDHMEeXxQt_pad-20" x="55170" y="80700"/><use xlink:href="#KsOsEG4kmYaDHMEeXxQt_pad-20" x="55170" y="83240"/><use xlink:href="#KsOsEG4kmYaDHMEeXxQt_pad-19" x="9770" y="57250"/><use xlink:href="#KsOsEG4kmYaDHMEeXxQt_pad-19" x="7230" y="57250"/><use xlink:href="#KsOsEG4kmYaDHMEeXxQt_pad-11" x="55124.6" y="64000"/><use xlink:href="#KsOsEG4kmYaDHMEeXxQt_pad-11" x="56875.4" y="64000"/><use xlink:href="#KsOsEG4kmYaDHMEeXxQt_pad-11" x="55124.6" y="61750"/><use xlink:href="#KsOsEG4kmYaDHMEeXxQt_pad-11" x="56875.4" y="61750"/><use xlink:href="#KsOsEG4kmYaDHMEeXxQt_pad-21" x="60389.6" y="82750"/><use xlink:href="#KsOsEG4kmYaDHMEeXxQt_pad-21" x="62020" y="82750"/><use xlink:href="#KsOsEG4kmYaDHMEeXxQt_pad-21" x="60434.8" y="80872"/><use xlink:href="#KsOsEG4kmYaDHMEeXxQt_pad-21" x="62065.2" y="80872"/><use xlink:href="#KsOsEG4kmYaDHMEeXxQt_pad-22" x="55960" y="59270"/><use xlink:href="#KsOsEG4kmYaDHMEeXxQt_pad-22" x="56960" y="59270"/><use xlink:href="#KsOsEG4kmYaDHMEeXxQt_pad-22" x="57960" y="59270"/><use xlink:href="#KsOsEG4kmYaDHMEeXxQt_pad-22" x="58960" y="59270"/><use xlink:href="#KsOsEG4kmYaDHMEeXxQt_pad-22" x="59960" y="59270"/><use xlink:href="#KsOsEG4kmYaDHMEeXxQt_pad-22" x="60960" y="59270"/><use xlink:href="#KsOsEG4kmYaDHMEeXxQt_pad-23" x="54660" y="55545"/><use xlink:href="#KsOsEG4kmYaDHMEeXxQt_pad-23" x="62260" y="55545"/><use xlink:href="#KsOsEG4kmYaDHMEeXxQt_pad-24" x="9250" y="66000"/><use xlink:href="#KsOsEG4kmYaDHMEeXxQt_pad-24" x="9250" y="67500"/><use xlink:href="#KsOsEG4kmYaDHMEeXxQt_pad-24" x="9250" y="70500"/><use xlink:href="#KsOsEG4kmYaDHMEeXxQt_pad-25" x="6500" y="64600"/><use xlink:href="#KsOsEG4kmYaDHMEeXxQt_pad-26" x="8600" y="64600"/><use xlink:href="#KsOsEG4kmYaDHMEeXxQt_pad-25" x="6500" y="71900"/><use xlink:href="#KsOsEG4kmYaDHMEeXxQt_pad-26" x="8600" y="71900"/><use xlink:href="#KsOsEG4kmYaDHMEeXxQt_pad-27" x="7500" y="69750"/><use xlink:href="#KsOsEG4kmYaDHMEeXxQt_pad-27" x="7500" y="66750"/><use xlink:href="#KsOsEG4kmYaDHMEeXxQt_pad-22" x="55960" y="51770"/><use xlink:href="#KsOsEG4kmYaDHMEeXxQt_pad-22" x="56960" y="51770"/><use xlink:href="#KsOsEG4kmYaDHMEeXxQt_pad-22" x="57960" y="51770"/><use xlink:href="#KsOsEG4kmYaDHMEeXxQt_pad-22" x="58960" y="51770"/><use xlink:href="#KsOsEG4kmYaDHMEeXxQt_pad-22" x="59960" y="51770"/><use xlink:href="#KsOsEG4kmYaDHMEeXxQt_pad-22" x="60960" y="51770"/><use xlink:href="#KsOsEG4kmYaDHMEeXxQt_pad-23" x="54660" y="48045"/><use xlink:href="#KsOsEG4kmYaDHMEeXxQt_pad-23" x="62260" y="48045"/></g></svg>