<svg version="1.1" xmlns="http://www.w3.org/2000/svg" xmlns:xlink="http://www.w3.org/1999/xlink" stroke-linecap="round" stroke-linejoin="round" stroke-width="0" fill-rule="evenodd" width="63.609mm" height="52.679mm" viewBox="6119 41809 63609 52679" id="izvYw90I53zmLvfKAbOC"><defs><circle cx="0" cy="0" r="1375" id="izvYw90I53zmLvfKAbOC_pad-1"/><circle cx="0" cy="0" r="1250" id="izvYw90I53zmLvfKAbOC_pad-2"/><circle cx="0" cy="0" r="508" id="izvYw90I53zmLvfKAbOC_pad-3"/><circle cx="0" cy="0" r="450" id="izvYw90I53zmLvfKAbOC_pad-4"/><circle cx="0" cy="0" r="425" id="izvYw90I53zmLvfKAbOC_pad-5"/><circle cx="0" cy="0" r="406.5" id="izvYw90I53zmLvfKAbOC_pad-6"/><circle cx="0" cy="0" r="350" id="izvYw90I53zmLvfKAbOC_pad-7"/><circle cx="0" cy="0" r="175" id="izvYw90I53zmLvfKAbOC_pad-8"/></defs><g transform="translate(0,136297) scale(1,-1)" fill="currentColor" stroke="currentColor"><use xlink:href="#izvYw90I53zmLvfKAbOC_pad-1" x="9100" y="43713"/><use xlink:href="#izvYw90I53zmLvfKAbOC_pad-1" x="9100" y="92713"/><use xlink:href="#izvYw90I53zmLvfKAbOC_pad-1" x="67100" y="92713"/><use xlink:href="#izvYw90I53zmLvfKAbOC_pad-1" x="67100" y="43713"/><use xlink:href="#izvYw90I53zmLvfKAbOC_pad-2" x="54000" y="43059"/><use xlink:href="#izvYw90I53zmLvfKAbOC_pad-2" x="68478" y="86250"/><use xlink:href="#izvYw90I53zmLvfKAbOC_pad-3" x="52070" y="93980"/><use xlink:href="#izvYw90I53zmLvfKAbOC_pad-3" x="24130" y="93980"/><use xlink:href="#izvYw90I53zmLvfKAbOC_pad-3" x="62230" y="93980"/><use xlink:href="#izvYw90I53zmLvfKAbOC_pad-3" x="62230" y="91440"/><use xlink:href="#izvYw90I53zmLvfKAbOC_pad-3" x="59690" y="93980"/><use xlink:href="#izvYw90I53zmLvfKAbOC_pad-3" x="59690" y="91440"/><use xlink:href="#izvYw90I53zmLvfKAbOC_pad-3" x="57150" y="93980"/><use xlink:href="#izvYw90I53zmLvfKAbOC_pad-3" x="57150" y="91440"/><use xlink:href="#izvYw90I53zmLvfKAbOC_pad-3" x="54610" y="93980"/><use xlink:href="#izvYw90I53zmLvfKAbOC_pad-3" x="54610" y="91440"/><use xlink:href="#izvYw90I53zmLvfKAbOC_pad-3" x="49530" y="93980"/><use xlink:href="#izvYw90I53zmLvfKAbOC_pad-3" x="49530" y="91440"/><use xlink:href="#izvYw90I53zmLvfKAbOC_pad-3" x="46990" y="93980"/><use xlink:href="#izvYw90I53zmLvfKAbOC_pad-3" x="46990" y="91440"/><use xlink:href="#izvYw90I53zmLvfKAbOC_pad-3" x="13970" y="93980"/><use xlink:href="#izvYw90I53zmLvfKAbOC_pad-3" x="16510" y="93980"/><use xlink:href="#izvYw90I53zmLvfKAbOC_pad-3" x="19050" y="93980"/><use xlink:href="#izvYw90I53zmLvfKAbOC_pad-3" x="21590" y="93980"/><use xlink:href="#izvYw90I53zmLvfKAbOC_pad-3" x="13970" y="91440"/><use xlink:href="#izvYw90I53zmLvfKAbOC_pad-3" x="16510" y="91440"/><use xlink:href="#izvYw90I53zmLvfKAbOC_pad-3" x="19050" y="91440"/><use xlink:href="#izvYw90I53zmLvfKAbOC_pad-3" x="21590" y="91440"/><use xlink:href="#izvYw90I53zmLvfKAbOC_pad-3" x="24130" y="91440"/><use xlink:href="#izvYw90I53zmLvfKAbOC_pad-3" x="26670" y="91440"/><use xlink:href="#izvYw90I53zmLvfKAbOC_pad-3" x="29210" y="91440"/><use xlink:href="#izvYw90I53zmLvfKAbOC_pad-3" x="31750" y="91440"/><use xlink:href="#izvYw90I53zmLvfKAbOC_pad-3" x="34290" y="91440"/><use xlink:href="#izvYw90I53zmLvfKAbOC_pad-3" x="36830" y="91440"/><use xlink:href="#izvYw90I53zmLvfKAbOC_pad-3" x="39370" y="91440"/><use xlink:href="#izvYw90I53zmLvfKAbOC_pad-3" x="41910" y="91440"/><use xlink:href="#izvYw90I53zmLvfKAbOC_pad-3" x="44450" y="91440"/><use xlink:href="#izvYw90I53zmLvfKAbOC_pad-3" x="44450" y="93980"/><use xlink:href="#izvYw90I53zmLvfKAbOC_pad-3" x="41910" y="93980"/><use xlink:href="#izvYw90I53zmLvfKAbOC_pad-3" x="39370" y="93980"/><use xlink:href="#izvYw90I53zmLvfKAbOC_pad-3" x="36830" y="93980"/><use xlink:href="#izvYw90I53zmLvfKAbOC_pad-3" x="34290" y="93980"/><use xlink:href="#izvYw90I53zmLvfKAbOC_pad-3" x="31750" y="93980"/><use xlink:href="#izvYw90I53zmLvfKAbOC_pad-3" x="29210" y="93980"/><use xlink:href="#izvYw90I53zmLvfKAbOC_pad-3" x="26670" y="93980"/><use xlink:href="#izvYw90I53zmLvfKAbOC_pad-3" x="52070" y="91440"/><use xlink:href="#izvYw90I53zmLvfKAbOC_pad-4" x="7500" y="66750"/><use xlink:href="#izvYw90I53zmLvfKAbOC_pad-4" x="7500" y="69750"/><use xlink:href="#izvYw90I53zmLvfKAbOC_pad-5" x="55170" y="83240"/><use xlink:href="#izvYw90I53zmLvfKAbOC_pad-5" x="55170" y="80700"/><use xlink:href="#izvYw90I53zmLvfKAbOC_pad-5" x="55170" y="78160"/><use xlink:href="#izvYw90I53zmLvfKAbOC_pad-5" x="55170" y="75620"/><use xlink:href="#izvYw90I53zmLvfKAbOC_pad-5" x="55170" y="73080"/><use xlink:href="#izvYw90I53zmLvfKAbOC_pad-5" x="55170" y="70540"/><use xlink:href="#izvYw90I53zmLvfKAbOC_pad-5" x="55170" y="68000"/><use xlink:href="#izvYw90I53zmLvfKAbOC_pad-6" x="7230" y="57250"/><use xlink:href="#izvYw90I53zmLvfKAbOC_pad-6" x="9835" y="60429"/><use xlink:href="#izvYw90I53zmLvfKAbOC_pad-6" x="7295" y="60429"/><use xlink:href="#izvYw90I53zmLvfKAbOC_pad-6" x="9822" y="53954"/><use xlink:href="#izvYw90I53zmLvfKAbOC_pad-6" x="7282" y="53954"/><use xlink:href="#izvYw90I53zmLvfKAbOC_pad-6" x="9770" y="57250"/><use xlink:href="#izvYw90I53zmLvfKAbOC_pad-7" x="6469" y="84309"/><use xlink:href="#izvYw90I53zmLvfKAbOC_pad-7" x="8269" y="84309"/><use xlink:href="#izvYw90I53zmLvfKAbOC_pad-7" x="6469" y="77195"/><use xlink:href="#izvYw90I53zmLvfKAbOC_pad-7" x="8269" y="77195"/><use xlink:href="#izvYw90I53zmLvfKAbOC_pad-8" x="30625" y="89875"/><use xlink:href="#izvYw90I53zmLvfKAbOC_pad-8" x="35500" y="88375"/><use xlink:href="#izvYw90I53zmLvfKAbOC_pad-8" x="30500" y="83000"/><use xlink:href="#izvYw90I53zmLvfKAbOC_pad-8" x="52605" y="83190"/><use xlink:href="#izvYw90I53zmLvfKAbOC_pad-8" x="58162" y="60780"/><use xlink:href="#izvYw90I53zmLvfKAbOC_pad-8" x="12625" y="85500"/><use xlink:href="#izvYw90I53zmLvfKAbOC_pad-8" x="18992" y="73508"/><use xlink:href="#izvYw90I53zmLvfKAbOC_pad-8" x="53875" y="87750"/><use xlink:href="#izvYw90I53zmLvfKAbOC_pad-8" x="56209" y="87740"/><use xlink:href="#izvYw90I53zmLvfKAbOC_pad-8" x="58000" y="87750"/><use xlink:href="#izvYw90I53zmLvfKAbOC_pad-8" x="21000" y="73500"/><use xlink:href="#izvYw90I53zmLvfKAbOC_pad-8" x="9754" y="79096"/></g></svg>